<?xml version="1.0" encoding="utf-8" standalone="no"?>
<!DOCTYPE svg PUBLIC "-//W3C//DTD SVG 1.1//EN"
  "http://www.w3.org/Graphics/SVG/1.1/DTD/svg11.dtd">
<svg xmlns:xlink="http://www.w3.org/1999/xlink" width="784.260937pt" height="404.449594pt" viewBox="0 0 784.260937 404.449594" xmlns="http://www.w3.org/2000/svg" version="1.1">
 <metadata>
  <rdf:RDF xmlns:dc="http://purl.org/dc/elements/1.1/" xmlns:cc="http://creativecommons.org/ns#" xmlns:rdf="http://www.w3.org/1999/02/22-rdf-syntax-ns#">
   <cc:Work>
    <dc:type rdf:resource="http://purl.org/dc/dcmitype/StillImage"/>
    <dc:format>image/svg+xml</dc:format>
    <dc:creator>
     <cc:Agent>
      <dc:title>Matplotlib v3.10.9, https://matplotlib.org/</dc:title>
     </cc:Agent>
    </dc:creator>
   </cc:Work>
  </rdf:RDF>
 </metadata>
 <defs>
  <style type="text/css">*{stroke-linejoin: round; stroke-linecap: butt}</style>
 </defs>
 <g id="figure_1">
  <g id="patch_1">
   <path d="M 0 404.449594 
L 784.260937 404.449594 
L 784.260937 0 
L 0 0 
z
" style="fill: #ffffff"/>
  </g>
  <g id="axes_1">
   <g id="patch_2">
    <path d="M 39.992188 355.545594 
L 777.060937 355.545594 
L 777.060937 21.073594 
L 39.992188 21.073594 
z
" style="fill: #ffffff"/>
   </g>
   <g id="matplotlib.axis_1">
    <g id="xtick_1">
     <g id="line2d_1">
      <defs>
       <path id="m9f61ef4e60" d="M 0 0 
L 0 3.5 
" style="stroke: #000000; stroke-width: 0.8"/>
      </defs>
      <g>
       <use xlink:href="#m9f61ef4e60" x="73.495313" y="355.545594" style="stroke: #000000; stroke-width: 0.8"/>
      </g>
     </g>
     <g id="text_1">
      <text style="font-size: 8px; font-family: 'Helvetica', 'Arial', 'DejaVu Sans', sans-serif; text-anchor: middle" x="73.495313" y="368.271844" transform="rotate(-0 73.495313 368.271844)">2025 Q1</text>
     </g>
    </g>
    <g id="xtick_2">
     <g id="line2d_2">
      <g>
       <use xlink:href="#m9f61ef4e60" x="238.716203" y="355.545594" style="stroke: #000000; stroke-width: 0.8"/>
      </g>
     </g>
     <g id="text_2">
      <text style="font-size: 8px; font-family: 'Helvetica', 'Arial', 'DejaVu Sans', sans-serif; text-anchor: middle" x="238.716203" y="368.271844" transform="rotate(-0 238.716203 368.271844)">2025 Q2</text>
     </g>
    </g>
    <g id="xtick_3">
     <g id="line2d_3">
      <g>
       <use xlink:href="#m9f61ef4e60" x="405.772881" y="355.545594" style="stroke: #000000; stroke-width: 0.8"/>
      </g>
     </g>
     <g id="text_3">
      <text style="font-size: 8px; font-family: 'Helvetica', 'Arial', 'DejaVu Sans', sans-serif; text-anchor: middle" x="405.772881" y="368.271844" transform="rotate(-0 405.772881 368.271844)">2025 Q3</text>
     </g>
    </g>
    <g id="xtick_4">
     <g id="line2d_4">
      <g>
       <use xlink:href="#m9f61ef4e60" x="574.665347" y="355.545594" style="stroke: #000000; stroke-width: 0.8"/>
      </g>
     </g>
     <g id="text_4">
      <text style="font-size: 8px; font-family: 'Helvetica', 'Arial', 'DejaVu Sans', sans-serif; text-anchor: middle" x="574.665347" y="368.271844" transform="rotate(-0 574.665347 368.271844)">2025 Q4</text>
     </g>
    </g>
    <g id="xtick_5">
     <g id="line2d_5">
      <g>
       <use xlink:href="#m9f61ef4e60" x="743.557812" y="355.545594" style="stroke: #000000; stroke-width: 0.8"/>
      </g>
     </g>
     <g id="text_5">
      <text style="font-size: 8px; font-family: 'Helvetica', 'Arial', 'DejaVu Sans', sans-serif; text-anchor: middle" x="743.557812" y="368.271844" transform="rotate(-0 743.557812 368.271844)">2026 Q1</text>
     </g>
    </g>
   </g>
   <g id="matplotlib.axis_2">
    <g id="ytick_1">
     <g id="line2d_6">
      <path d="M 39.992188 316.64137 
L 777.060937 316.64137 
" clip-path="url(#p7440a442a8)" style="fill: none; stroke: #e0e0e0; stroke-width: 0.6; stroke-linecap: square"/>
     </g>
     <g id="line2d_7">
      <defs>
       <path id="me89d0b6c21" d="M 0 0 
L -3.5 0 
" style="stroke: #000000; stroke-width: 0.8"/>
      </defs>
      <g>
       <use xlink:href="#me89d0b6c21" x="39.992188" y="316.64137" style="stroke: #000000; stroke-width: 0.8"/>
      </g>
     </g>
     <g id="text_6">
      <text style="font-size: 8px; font-family: 'Helvetica', 'Arial', 'DejaVu Sans', sans-serif; text-anchor: end" x="32.992188" y="319.504495" transform="rotate(-0 32.992188 319.504495)">100</text>
     </g>
    </g>
    <g id="ytick_2">
     <g id="line2d_8">
      <path d="M 39.992188 249.793209 
L 777.060937 249.793209 
" clip-path="url(#p7440a442a8)" style="fill: none; stroke: #e0e0e0; stroke-width: 0.6; stroke-linecap: square"/>
     </g>
     <g id="line2d_9">
      <g>
       <use xlink:href="#me89d0b6c21" x="39.992188" y="249.793209" style="stroke: #000000; stroke-width: 0.8"/>
      </g>
     </g>
     <g id="text_7">
      <text style="font-size: 8px; font-family: 'Helvetica', 'Arial', 'DejaVu Sans', sans-serif; text-anchor: end" x="32.992188" y="252.656334" transform="rotate(-0 32.992188 252.656334)">120</text>
     </g>
    </g>
    <g id="ytick_3">
     <g id="line2d_10">
      <path d="M 39.992188 182.945048 
L 777.060937 182.945048 
" clip-path="url(#p7440a442a8)" style="fill: none; stroke: #e0e0e0; stroke-width: 0.6; stroke-linecap: square"/>
     </g>
     <g id="line2d_11">
      <g>
       <use xlink:href="#me89d0b6c21" x="39.992188" y="182.945048" style="stroke: #000000; stroke-width: 0.8"/>
      </g>
     </g>
     <g id="text_8">
      <text style="font-size: 8px; font-family: 'Helvetica', 'Arial', 'DejaVu Sans', sans-serif; text-anchor: end" x="32.992188" y="185.808173" transform="rotate(-0 32.992188 185.808173)">140</text>
     </g>
    </g>
    <g id="ytick_4">
     <g id="line2d_12">
      <path d="M 39.992188 116.096887 
L 777.060937 116.096887 
" clip-path="url(#p7440a442a8)" style="fill: none; stroke: #e0e0e0; stroke-width: 0.6; stroke-linecap: square"/>
     </g>
     <g id="line2d_13">
      <g>
       <use xlink:href="#me89d0b6c21" x="39.992188" y="116.096887" style="stroke: #000000; stroke-width: 0.8"/>
      </g>
     </g>
     <g id="text_9">
      <text style="font-size: 8px; font-family: 'Helvetica', 'Arial', 'DejaVu Sans', sans-serif; text-anchor: end" x="32.992188" y="118.960012" transform="rotate(-0 32.992188 118.960012)">160</text>
     </g>
    </g>
    <g id="ytick_5">
     <g id="line2d_14">
      <path d="M 39.992188 49.248726 
L 777.060937 49.248726 
" clip-path="url(#p7440a442a8)" style="fill: none; stroke: #e0e0e0; stroke-width: 0.6; stroke-linecap: square"/>
     </g>
     <g id="line2d_15">
      <g>
       <use xlink:href="#me89d0b6c21" x="39.992188" y="49.248726" style="stroke: #000000; stroke-width: 0.8"/>
      </g>
     </g>
     <g id="text_10">
      <text style="font-size: 8px; font-family: 'Helvetica', 'Arial', 'DejaVu Sans', sans-serif; text-anchor: end" x="32.992188" y="52.111851" transform="rotate(-0 32.992188 52.111851)">180</text>
     </g>
    </g>
    <g id="text_11">
     <text style="font-size: 9px; font-family: 'Helvetica', 'Arial', 'DejaVu Sans', sans-serif; text-anchor: middle" x="13.751719" y="188.309594" transform="rotate(-90 13.751719 188.309594)">Index level (base_date 2026-01-01 = 100)</text>
    </g>
   </g>
   <g id="line2d_16">
    <path d="M 73.495313 36.276866 
L 75.3311 36.554643 
L 77.166888 36.311832 
L 79.002676 46.578866 
L 80.838463 46.153662 
L 82.674251 46.560278 
L 84.510039 43.431203 
L 88.181614 46.437614 
L 90.017402 42.853356 
L 91.853189 45.399833 
L 93.688977 44.873569 
L 95.524765 44.1718 
L 97.360552 45.693323 
L 99.19634 45.16951 
L 101.032128 46.286526 
L 102.867915 45.575294 
L 104.703703 43.940933 
L 106.539491 42.73372 
L 108.375278 44.836082 
L 110.211066 47.622809 
L 112.046854 44.815599 
L 113.882641 46.097009 
L 115.718429 44.145911 
L 117.554217 47.791661 
L 119.390004 47.255974 
L 121.225792 47.700844 
L 123.06158 45.197177 
L 124.897367 46.502247 
L 128.568943 48.657612 
L 130.40473 50.894748 
L 132.240518 50.260742 
L 134.076306 49.841505 
L 135.912093 48.014572 
L 137.747881 53.02724 
L 139.583669 54.291577 
L 141.419456 57.936753 
L 143.255244 51.427522 
L 145.091032 52.41814 
L 146.926819 54.090154 
L 148.762607 61.679249 
L 150.598395 238.811398 
L 152.434182 262.096882 
L 154.26997 260.779809 
L 156.105758 261.504401 
L 157.941545 264.8165 
L 159.777333 260.488144 
L 161.613121 263.842282 
L 163.448908 261.184377 
L 165.284696 262.108976 
L 167.120484 262.17018 
L 168.956271 263.064461 
L 170.792059 223.678034 
L 172.627847 205.296771 
L 174.463634 204.687086 
L 176.299422 202.811594 
L 178.13521 202.334447 
L 179.970997 203.320735 
L 181.806785 201.469202 
L 183.642573 201.415039 
L 185.47836 200.855653 
L 187.314148 201.694703 
L 189.149936 200.470224 
L 190.985723 202.068507 
L 192.821511 227.165287 
L 194.657299 232.193219 
L 196.493086 234.650549 
L 198.328874 233.883464 
L 200.164662 235.04097 
L 203.836237 233.874292 
L 205.672025 231.735795 
L 207.507812 235.459235 
L 209.3436 233.513308 
L 211.179388 232.508294 
L 213.015176 233.684119 
L 214.850963 233.73741 
L 216.686751 230.422566 
L 218.522539 232.956594 
L 220.358326 231.296521 
L 222.194114 231.262107 
L 224.029902 231.473909 
L 225.865689 233.076186 
L 227.701477 231.172704 
L 229.537265 233.634165 
L 231.373052 235.487479 
L 233.20884 234.544115 
L 235.044628 235.644114 
L 236.880415 238.078352 
L 238.716203 238.326695 
L 240.551991 238.267731 
L 242.387778 234.239429 
L 244.223566 236.808343 
L 246.059354 235.134489 
L 247.895141 234.72278 
L 249.730929 236.321119 
L 251.566717 236.37586 
L 253.402504 237.629662 
L 255.238292 235.607507 
L 257.07408 237.374663 
L 258.909867 234.161946 
L 260.745655 237.646896 
L 262.581443 236.927628 
L 264.41723 237.661393 
L 266.253018 238.14424 
L 268.088806 239.615827 
L 269.924593 237.754715 
L 271.760381 236.592911 
L 273.596169 236.259896 
L 275.431956 236.581706 
L 277.267744 236.567996 
L 279.103532 234.415115 
L 280.939319 234.519996 
L 282.775107 235.871753 
L 284.610895 234.07565 
L 286.446682 231.955358 
L 288.28247 233.329446 
L 290.118258 233.93808 
L 291.954045 231.250632 
L 293.789833 232.953362 
L 295.625621 233.893739 
L 297.461408 234.406695 
L 299.297196 233.061738 
L 301.132984 232.964003 
L 302.968771 233.60446 
L 304.804559 231.846946 
L 306.640347 233.118709 
L 308.476134 233.042091 
L 310.311922 233.495785 
L 312.14771 231.972243 
L 313.983497 234.498334 
L 315.819285 234.786234 
L 317.655073 235.916275 
L 319.49086 308.474215 
L 321.326648 285.451531 
L 323.162436 270.282646 
L 324.998223 271.486014 
L 326.834011 272.408682 
L 328.669799 273.87169 
L 330.505586 274.58979 
L 332.341374 282.57318 
L 334.177162 302.013053 
L 336.012949 302.592769 
L 337.848737 301.727294 
L 339.684525 302.77636 
L 341.520313 303.404679 
L 343.3561 304.341689 
L 345.191888 304.851494 
L 347.027676 305.811467 
L 350.699251 304.075357 
L 352.535039 304.75586 
L 354.370826 304.75349 
L 356.206614 304.08158 
L 358.042402 305.519484 
L 359.878189 303.792689 
L 361.713977 303.745879 
L 363.549765 304.381272 
L 365.385552 302.164079 
L 367.22134 303.710071 
L 369.057128 302.762292 
L 370.892915 302.748696 
L 372.728703 301.852477 
L 374.564491 302.148608 
L 376.400278 302.795648 
L 378.236066 301.174689 
L 380.071854 301.376007 
L 381.907641 298.880446 
L 383.743429 300.547339 
L 385.579217 298.418613 
L 387.415004 300.735013 
L 391.08658 300.033919 
L 392.922367 300.545272 
L 394.758155 301.553403 
L 396.593943 301.560179 
L 398.42973 300.607541 
L 400.265518 299.021582 
L 402.101306 299.426933 
L 403.937093 299.100366 
L 405.772881 300.436965 
L 407.608669 296.098894 
L 409.444456 301.86917 
L 411.280244 300.777401 
L 413.116032 300.831319 
L 414.951819 299.0927 
L 416.787607 299.434622 
L 418.623395 299.254892 
L 420.459182 300.099517 
L 422.29497 298.882473 
L 424.130758 299.168959 
L 425.966545 299.675318 
L 427.802333 298.348581 
L 429.638121 299.019019 
L 431.473908 299.879085 
L 433.309696 299.863423 
L 435.145484 300.795011 
L 436.981271 300.783732 
L 438.817059 301.859015 
L 440.652847 296.463012 
L 442.488634 291.620436 
L 444.324422 290.322043 
L 446.16021 292.261312 
L 447.995997 289.943907 
L 449.831785 287.821812 
L 451.667573 291.14246 
L 453.50336 290.026053 
L 455.339148 290.151584 
L 457.174936 290.490258 
L 459.010723 291.1162 
L 460.846511 300.918183 
L 462.682299 297.998012 
L 464.518086 299.47732 
L 466.353874 298.561725 
L 470.025449 297.017605 
L 471.861237 297.308796 
L 473.697025 295.548656 
L 475.532813 295.403473 
L 477.3686 297.013983 
L 479.204388 295.301465 
L 481.040176 296.542983 
L 482.875963 294.588427 
L 484.711751 294.78268 
L 486.547539 294.272896 
L 488.383326 295.512856 
L 490.219114 296.531206 
L 492.054902 295.115398 
L 493.890689 297.388504 
L 495.726477 296.05388 
L 497.562265 295.290459 
L 499.398052 296.653598 
L 501.23384 294.977033 
L 503.069628 296.676374 
L 506.741203 295.958293 
L 508.576991 300.629972 
L 510.412778 303.010971 
L 512.248566 301.507003 
L 514.084354 304.830009 
L 515.920141 302.581976 
L 517.755929 304.078682 
L 519.591717 315.562466 
L 521.427504 314.718896 
L 523.263292 315.641035 
L 525.09908 313.951966 
L 526.934867 314.503316 
L 528.770655 314.071932 
L 530.606443 314.523242 
L 532.44223 315.557122 
L 534.278018 315.183101 
L 536.113806 314.549364 
L 539.785381 315.485732 
L 541.621169 315.219481 
L 543.456956 313.626407 
L 545.292744 315.151929 
L 547.128532 314.154895 
L 548.964319 314.286171 
L 550.800107 312.719143 
L 552.635895 312.78585 
L 554.471682 313.547119 
L 556.30747 332.717776 
L 558.143258 332.157338 
L 559.979045 327.882161 
L 561.814833 331.365021 
L 563.650621 331.851426 
L 565.486408 329.712523 
L 567.322196 332.217693 
L 569.157984 330.805297 
L 570.993771 333.881274 
L 572.829559 331.112346 
L 574.665347 333.422136 
L 578.336922 334.931242 
L 580.17271 333.297324 
L 582.008497 333.233463 
L 583.844285 331.614877 
L 585.680073 327.688616 
L 587.51586 329.353614 
L 589.351648 330.177905 
L 591.187436 328.743807 
L 593.023223 329.510971 
L 594.859011 329.970683 
L 596.694799 327.771569 
L 598.530586 331.609404 
L 600.366374 329.165539 
L 602.202162 326.958562 
L 604.037949 328.006534 
L 605.873737 327.226513 
L 611.3811 329.916596 
L 613.216888 329.288457 
L 615.052676 330.18422 
L 616.888463 329.718788 
L 618.724251 330.777732 
L 620.560039 328.257903 
L 622.395826 328.276957 
L 624.231614 327.526259 
L 626.067402 328.463224 
L 627.903189 331.339715 
L 629.738977 332.554857 
L 631.574765 330.459352 
L 633.410552 332.497963 
L 637.082128 332.281385 
L 638.917915 331.352466 
L 640.753703 331.978411 
L 642.589491 331.806153 
L 644.425278 331.953284 
L 646.261066 333.223066 
L 648.096854 336.061661 
L 649.932641 334.201278 
L 651.768429 335.354835 
L 653.604217 336.256965 
L 655.440004 334.37138 
L 657.275792 338.423827 
L 659.11158 336.312824 
L 660.947367 336.757214 
L 662.783155 336.106331 
L 664.618943 336.341107 
L 666.45473 337.856268 
L 668.290518 338.029598 
L 670.126306 336.79567 
L 671.962093 337.737306 
L 673.797881 337.535409 
L 675.633669 339.302664 
L 677.469456 338.993327 
L 679.305244 337.87117 
L 681.141032 338.438856 
L 682.976819 339.215979 
L 684.812607 332.126709 
L 686.648395 332.163082 
L 688.484182 331.153223 
L 690.31997 333.724641 
L 692.155758 334.405739 
L 693.991545 340.342321 
L 695.827333 331.745487 
L 697.663121 332.089467 
L 699.498908 328.824506 
L 701.334696 335.318596 
L 703.170484 334.713623 
L 705.006271 335.779364 
L 706.842059 333.869863 
L 708.677847 333.942667 
L 710.513634 336.248794 
L 712.349422 335.773191 
L 714.18521 333.129159 
L 717.856785 334.424074 
L 719.692573 332.462445 
L 721.52836 332.871565 
L 723.364148 332.93461 
L 725.199936 331.512055 
L 727.035723 333.299413 
L 728.871511 329.929154 
L 730.707299 325.849583 
L 732.543086 319.819327 
L 734.378874 318.58107 
L 736.214662 319.890562 
L 738.050449 318.208422 
L 739.886237 318.496072 
L 743.557812 316.64137 
L 743.557812 316.64137 
" clip-path="url(#p7440a442a8)" style="fill: none; stroke: #555555; stroke-width: 1.4; stroke-linecap: square"/>
   </g>
   <g id="line2d_17">
    <path d="M 73.495313 36.276866 
L 75.3311 36.554643 
L 77.166888 36.311832 
L 79.002676 46.578866 
L 80.838463 46.153662 
L 82.674251 46.560278 
L 84.510039 43.431203 
L 88.181614 46.437614 
L 90.017402 42.853356 
L 91.853189 45.399833 
L 93.688977 44.873569 
L 95.524765 44.1718 
L 97.360552 45.693323 
L 99.19634 45.16951 
L 101.032128 46.286526 
L 102.867915 45.575294 
L 104.703703 43.940933 
L 106.539491 42.73372 
L 108.375278 44.836082 
L 110.211066 47.622809 
L 112.046854 44.815599 
L 113.882641 46.097009 
L 115.718429 44.145911 
L 117.554217 47.791661 
L 119.390004 47.255974 
L 121.225792 47.700844 
L 123.06158 45.197177 
L 124.897367 46.502247 
L 128.568943 48.657612 
L 130.40473 50.894748 
L 132.240518 50.260742 
L 134.076306 49.841505 
L 135.912093 48.014572 
L 137.747881 53.02724 
L 139.583669 54.291577 
L 141.419456 57.936753 
L 143.255244 51.427522 
L 145.091032 52.41814 
L 146.926819 54.090154 
L 148.762607 61.679249 
L 150.598395 238.811398 
L 152.434182 262.096882 
L 154.26997 260.779809 
L 156.105758 261.504401 
L 157.941545 264.8165 
L 159.777333 260.488144 
L 161.613121 263.842282 
L 163.448908 261.184377 
L 165.284696 262.108976 
L 167.120484 262.17018 
L 168.956271 263.064461 
L 170.792059 223.678034 
L 172.627847 205.296771 
L 174.463634 204.687086 
L 176.299422 202.811594 
L 178.13521 202.334447 
L 179.970997 203.320735 
L 181.806785 201.469202 
L 183.642573 201.415039 
L 185.47836 200.855653 
L 187.314148 201.694703 
L 189.149936 200.470224 
L 190.985723 202.068507 
L 192.821511 227.165287 
L 194.657299 232.193219 
L 196.493086 234.650549 
L 198.328874 233.883464 
L 200.164662 235.04097 
L 203.836237 233.874292 
L 205.672025 231.735795 
L 207.507812 235.459235 
L 209.3436 233.513308 
L 211.179388 232.508294 
L 213.015176 233.684119 
L 214.850963 233.73741 
L 216.686751 230.422566 
L 218.522539 232.956594 
L 220.358326 231.296521 
L 222.194114 231.262107 
L 224.029902 231.473909 
L 225.865689 233.076186 
L 227.701477 231.172704 
L 229.537265 233.634165 
L 231.373052 235.487479 
L 233.20884 234.544115 
L 235.044628 235.644114 
L 236.880415 238.078352 
L 238.716203 238.326695 
L 240.551991 238.267731 
L 242.387778 234.239429 
L 244.223566 236.808343 
L 246.059354 235.134489 
L 247.895141 234.72278 
L 249.730929 236.321119 
L 251.566717 236.37586 
L 253.402504 237.629662 
L 255.238292 235.607507 
L 257.07408 237.374663 
L 258.909867 234.161946 
L 260.745655 237.646896 
L 262.581443 236.927628 
L 264.41723 237.661393 
L 266.253018 238.14424 
L 268.088806 239.615827 
L 269.924593 237.754715 
L 271.760381 236.592911 
L 273.596169 236.259896 
L 275.431956 236.581706 
L 277.267744 236.567996 
L 279.103532 234.415115 
L 280.939319 234.519996 
L 282.775107 235.871753 
L 284.610895 234.07565 
L 286.446682 231.955358 
L 288.28247 233.329446 
L 290.118258 233.93808 
L 291.954045 231.250632 
L 293.789833 232.953362 
L 295.625621 233.893739 
L 297.461408 234.406695 
L 299.297196 233.061738 
L 301.132984 232.964003 
L 302.968771 233.60446 
L 304.804559 231.846946 
L 306.640347 233.118709 
L 308.476134 233.042091 
L 310.311922 233.495785 
L 312.14771 231.972243 
L 313.983497 234.498334 
L 315.819285 234.786234 
L 317.655073 235.916275 
L 319.49086 308.474215 
L 321.326648 285.451531 
L 323.162436 270.282646 
L 324.998223 271.486014 
L 326.834011 272.408682 
L 328.669799 273.87169 
L 330.505586 274.58979 
L 332.341374 282.57318 
L 334.177162 302.013053 
L 336.012949 302.592769 
L 337.848737 301.727294 
L 339.684525 302.77636 
L 341.520313 303.404679 
L 343.3561 304.341689 
L 345.191888 304.851494 
L 347.027676 305.811467 
L 350.699251 304.075357 
L 352.535039 304.75586 
L 354.370826 304.75349 
L 356.206614 304.08158 
L 358.042402 305.519484 
L 359.878189 303.792689 
L 361.713977 303.745879 
L 363.549765 304.381272 
L 365.385552 302.164079 
L 367.22134 303.710071 
L 369.057128 302.762292 
L 370.892915 302.748696 
L 372.728703 301.852477 
L 374.564491 302.148608 
L 376.400278 302.795648 
L 378.236066 301.174689 
L 380.071854 301.376007 
L 381.907641 298.880446 
L 383.743429 300.547339 
L 385.579217 298.418613 
L 387.415004 300.735013 
L 391.08658 300.033919 
L 392.922367 300.545272 
L 394.758155 301.553403 
L 396.593943 301.560179 
L 398.42973 300.607541 
L 400.265518 299.021582 
L 402.101306 299.426933 
L 403.937093 299.100366 
L 405.772881 300.436965 
L 407.608669 296.098894 
L 409.444456 301.86917 
L 411.280244 300.777401 
L 413.116032 300.831319 
L 414.951819 299.0927 
L 416.787607 299.434622 
L 418.623395 299.254892 
L 420.459182 300.099517 
L 422.29497 298.882473 
L 424.130758 299.168959 
L 425.966545 299.675318 
L 427.802333 298.348581 
L 429.638121 299.019019 
L 431.473908 299.879085 
L 433.309696 299.863423 
L 435.145484 300.795011 
L 436.981271 300.783732 
L 438.817059 301.859015 
L 440.652847 296.463012 
L 442.488634 291.620436 
L 444.324422 290.322043 
L 446.16021 292.261312 
L 447.995997 289.943907 
L 449.831785 287.821812 
L 451.667573 291.14246 
L 453.50336 290.026053 
L 455.339148 290.151584 
L 457.174936 290.490258 
L 459.010723 291.1162 
L 460.846511 300.918183 
L 462.682299 297.998012 
L 464.518086 299.47732 
L 466.353874 298.561725 
L 470.025449 297.017605 
L 471.861237 297.308796 
L 473.697025 295.548656 
L 475.532813 295.403473 
L 477.3686 297.013983 
L 479.204388 295.301465 
L 481.040176 296.542983 
L 482.875963 294.588427 
L 484.711751 294.78268 
L 486.547539 294.272896 
L 488.383326 295.512856 
L 490.219114 296.531206 
L 492.054902 295.115398 
L 493.890689 297.388504 
L 495.726477 296.05388 
L 497.562265 295.290459 
L 499.398052 296.653598 
L 501.23384 294.977033 
L 503.069628 296.676374 
L 506.741203 295.958293 
L 508.576991 300.629972 
L 510.412778 303.010971 
L 512.248566 301.507003 
L 514.084354 304.830009 
L 515.920141 302.581976 
L 517.755929 304.078682 
L 519.591717 315.562466 
L 521.427504 314.718896 
L 523.263292 315.641035 
L 525.09908 313.951966 
L 526.934867 314.503316 
L 528.770655 314.071932 
L 530.606443 314.523242 
L 532.44223 315.557122 
L 534.278018 315.183101 
L 536.113806 314.549364 
L 539.785381 315.485732 
L 541.621169 315.219481 
L 543.456956 313.626407 
L 545.292744 315.151929 
L 547.128532 314.154895 
L 548.964319 314.286171 
L 550.800107 312.719143 
L 552.635895 312.78585 
L 554.471682 313.547119 
L 556.30747 332.717776 
L 558.143258 332.157338 
L 559.979045 327.882161 
L 561.814833 331.365021 
L 563.650621 331.851426 
L 565.486408 329.712523 
L 567.322196 332.217693 
L 569.157984 330.805297 
L 570.993771 333.881274 
L 572.829559 331.112346 
L 574.665347 333.422136 
L 578.336922 334.931242 
L 580.17271 333.297324 
L 582.008497 333.233463 
L 583.844285 331.614877 
L 585.680073 327.688616 
L 587.51586 329.353614 
L 589.351648 330.177905 
L 591.187436 328.743807 
L 593.023223 329.510971 
L 594.859011 329.970683 
L 596.694799 327.771569 
L 598.530586 331.609404 
L 600.366374 329.165539 
L 602.202162 326.958562 
L 604.037949 328.006534 
L 605.873737 327.226513 
L 611.3811 329.916596 
L 613.216888 329.288457 
L 615.052676 330.18422 
L 616.888463 329.718788 
L 618.724251 330.777732 
L 620.560039 328.257903 
L 622.395826 328.276957 
L 624.231614 327.526259 
L 626.067402 328.463224 
L 627.903189 331.339715 
L 629.738977 332.554857 
L 631.574765 330.459352 
L 633.410552 332.497963 
L 637.082128 332.281385 
L 638.917915 331.352466 
L 640.753703 331.978411 
L 642.589491 331.806153 
L 644.425278 331.953284 
L 646.261066 333.223066 
L 648.096854 336.061661 
L 649.932641 334.201278 
L 651.768429 335.354835 
L 653.604217 336.256965 
L 655.440004 334.37138 
L 657.275792 338.423827 
L 659.11158 336.312824 
L 660.947367 336.757214 
L 662.783155 336.106331 
L 664.618943 336.341107 
L 666.45473 337.856268 
L 668.290518 338.029598 
L 670.126306 336.79567 
L 671.962093 337.737306 
L 673.797881 337.535409 
L 675.633669 339.302664 
L 677.469456 338.993327 
L 679.305244 337.87117 
L 681.141032 338.438856 
L 682.976819 339.215979 
L 684.812607 332.126709 
L 686.648395 332.163082 
L 688.484182 331.153223 
L 690.31997 333.724641 
L 692.155758 334.405739 
L 693.991545 340.342321 
L 695.827333 331.745487 
L 697.663121 332.089467 
L 699.498908 328.824506 
L 701.334696 335.318596 
L 703.170484 334.713623 
L 705.006271 335.779364 
L 706.842059 333.869863 
L 708.677847 333.942667 
L 710.513634 336.248794 
L 712.349422 335.773191 
L 714.18521 333.129159 
L 717.856785 334.424074 
L 719.692573 332.462445 
L 721.52836 332.871565 
L 723.364148 332.93461 
L 725.199936 331.512055 
L 727.035723 333.299413 
L 728.871511 329.929154 
L 730.707299 325.849583 
L 732.543086 319.819327 
L 734.378874 318.58107 
L 736.214662 319.890562 
L 738.050449 318.208422 
L 739.886237 318.496072 
L 743.557812 316.64137 
L 743.557812 316.64137 
" clip-path="url(#p7440a442a8)" style="fill: none; stroke-dasharray: 5.18,2.24; stroke-dashoffset: 0; stroke: #1a3a5c; stroke-width: 1.4"/>
   </g>
   <g id="patch_3">
    <path d="M 39.992188 355.545594 
L 777.060937 355.545594 
" style="fill: none; stroke: #888888; stroke-width: 0.6; stroke-linejoin: miter; stroke-linecap: square"/>
   </g>
   <g id="text_12">
    <g id="patch_4">
     <path d="M 473.344562 116.524254 
L 762.319562 116.524254 
Q 766.319562 116.524254 766.319562 112.524254 
L 766.319562 30.885254 
Q 766.319562 26.885254 762.319562 26.885254 
L 473.344562 26.885254 
Q 469.344562 26.885254 469.344562 30.885254 
L 469.344562 112.524254 
Q 469.344562 116.524254 473.344562 116.524254 
z
" style="fill: #ffffff; stroke: #cccccc; stroke-width: 0.6; stroke-linejoin: miter"/>
    </g>
    <text style="font-size: 8px; font-family: 'DejaVu Sans Mono', 'Bitstream Vera Sans Mono', 'Computer Modern Typewriter', 'Andale Mono', 'Nimbus Mono L', 'Courier New', 'Courier', 'Fixed', 'Terminal', monospace; fill: #555555" transform="translate(473.344562 37.229004)">Max |Δ| across 366 days (all 20 seeds, canonical config):</text>
    <text style="font-size: 8px; font-family: 'DejaVu Sans Mono', 'Bitstream Vera Sans Mono', 'Computer Modern Typewriter', 'Andale Mono', 'Nimbus Mono L', 'Courier New', 'Courier', 'Fixed', 'Terminal', monospace; fill: #555555" transform="translate(473.344562 46.460754)">  • fat_finger_high: 0.0 (exact)</text>
    <text style="font-size: 8px; font-family: 'DejaVu Sans Mono', 'Bitstream Vera Sans Mono', 'Computer Modern Typewriter', 'Andale Mono', 'Nimbus Mono L', 'Courier New', 'Courier', 'Fixed', 'Terminal', monospace; fill: #555555" transform="translate(473.344562 55.692504)">  • intraday_spike: 0.0 (exact)</text>
    <text style="font-size: 8px; font-family: 'DejaVu Sans Mono', 'Bitstream Vera Sans Mono', 'Computer Modern Typewriter', 'Andale Mono', 'Nimbus Mono L', 'Courier New', 'Courier', 'Fixed', 'Terminal', monospace; fill: #555555" transform="translate(473.344562 64.924254)">  • correlated_blackout: 2.84e-14</text>
    <text style="font-size: 8px; font-family: 'DejaVu Sans Mono', 'Bitstream Vera Sans Mono', 'Computer Modern Typewriter', 'Andale Mono', 'Nimbus Mono L', 'Courier New', 'Courier', 'Fixed', 'Terminal', monospace; fill: #555555" transform="translate(473.344562 74.156004)">  • stale_quote: 2.84e-14</text>
    <text style="font-size: 8px; font-family: 'DejaVu Sans Mono', 'Bitstream Vera Sans Mono', 'Computer Modern Typewriter', 'Andale Mono', 'Nimbus Mono L', 'Courier New', 'Courier', 'Fixed', 'Terminal', monospace; fill: #555555" transform="translate(473.344562 83.387754)">  • shock_price_cut: 0.0 (exact)</text>
    <text style="font-size: 8px; font-family: 'DejaVu Sans Mono', 'Bitstream Vera Sans Mono', 'Computer Modern Typewriter', 'Andale Mono', 'Nimbus Mono L', 'Courier New', 'Courier', 'Fixed', 'Terminal', monospace; fill: #555555" transform="translate(473.344562 92.619504)">  • sustained_manipulation: 2.84e-14</text>
    <text style="font-size: 8px; font-family: 'DejaVu Sans Mono', 'Bitstream Vera Sans Mono', 'Computer Modern Typewriter', 'Andale Mono', 'Nimbus Mono L', 'Courier New', 'Courier', 'Fixed', 'Terminal', monospace; fill: #555555" transform="translate(473.344562 101.851254)"/>
    <text style="font-size: 8px; font-family: 'DejaVu Sans Mono', 'Bitstream Vera Sans Mono', 'Computer Modern Typewriter', 'Andale Mono', 'Nimbus Mono L', 'Courier New', 'Courier', 'Fixed', 'Terminal', monospace; fill: #555555" transform="translate(473.344562 110.860504)">All six scenarios absorbed to within float-arithmetic noise.</text>
   </g>
   <g id="text_13">
    <text style="font-size: 11px; font-family: 'Helvetica', 'Arial', 'DejaVu Sans', sans-serif; text-anchor: middle" x="408.526562" y="15.073594" transform="rotate(-0 408.526562 15.073594)">F-tier scenario absorption: TPRR-F clean vs correlated_blackout signature</text>
   </g>
   <g id="legend_1">
    <g id="patch_5">
     <path d="M 45.592188 351.545594 
L 180.129688 351.545594 
Q 181.729688 351.545594 181.729688 349.945594 
L 181.729688 327.921844 
Q 181.729688 326.321844 180.129688 326.321844 
L 45.592188 326.321844 
Q 43.992188 326.321844 43.992188 327.921844 
L 43.992188 349.945594 
Q 43.992188 351.545594 45.592188 351.545594 
z
" style="fill: #ffffff; opacity: 0.9; stroke: #cccccc; stroke-linejoin: miter"/>
    </g>
    <g id="line2d_18">
     <path d="M 47.192188 332.448094 
L 55.192188 332.448094 
L 63.192188 332.448094 
" style="fill: none; stroke: #555555; stroke-width: 1.4; stroke-linecap: square"/>
    </g>
    <g id="text_14">
     <text style="font-size: 8px; font-family: 'Helvetica', 'Arial', 'DejaVu Sans', sans-serif; text-anchor: start" x="69.592188" y="335.248094" transform="rotate(-0 69.592188 335.248094)">Clean</text>
    </g>
    <g id="line2d_19">
     <path d="M 47.192188 343.861844 
L 55.192188 343.861844 
L 63.192188 343.861844 
" style="fill: none; stroke-dasharray: 5.18,2.24; stroke-dashoffset: 0; stroke: #1a3a5c; stroke-width: 1.4"/>
    </g>
    <g id="text_15">
     <text style="font-size: 8px; font-family: 'Helvetica', 'Arial', 'DejaVu Sans', sans-serif; text-anchor: start" x="69.592188" y="346.661844" transform="rotate(-0 69.592188 346.661844)">Scenario (correlated_blackout)</text>
    </g>
   </g>
  </g>
  <g id="text_16">
   <text style="font-style: italic; font-size: 8px; font-family: 'Helvetica', 'Arial', 'DejaVu Sans', sans-serif; text-anchor: start; fill: #555555" x="39.992188" y="395.589594" transform="rotate(-0 39.992188 395.589594)">canonical config, seed-42</text>
  </g>
 </g>
 <defs>
  <clipPath id="p7440a442a8">
   <rect x="39.992188" y="21.073594" width="737.06875" height="334.472"/>
  </clipPath>
 </defs>
</svg>
