<?xml version="1.0" encoding="utf-8" standalone="no"?>
<!DOCTYPE svg PUBLIC "-//W3C//DTD SVG 1.1//EN"
  "http://www.w3.org/Graphics/SVG/1.1/DTD/svg11.dtd">
<svg xmlns:xlink="http://www.w3.org/1999/xlink" width="1000.170938pt" height="353.088pt" viewBox="0 0 1000.170938 353.088" xmlns="http://www.w3.org/2000/svg" version="1.1">
 <metadata>
  <rdf:RDF xmlns:dc="http://purl.org/dc/elements/1.1/" xmlns:cc="http://creativecommons.org/ns#" xmlns:rdf="http://www.w3.org/1999/02/22-rdf-syntax-ns#">
   <cc:Work>
    <dc:type rdf:resource="http://purl.org/dc/dcmitype/StillImage"/>
    <dc:format>image/svg+xml</dc:format>
    <dc:creator>
     <cc:Agent>
      <dc:title>Matplotlib v3.10.9, https://matplotlib.org/</dc:title>
     </cc:Agent>
    </dc:creator>
   </cc:Work>
  </rdf:RDF>
 </metadata>
 <defs>
  <style type="text/css">*{stroke-linejoin: round; stroke-linecap: butt}</style>
 </defs>
 <g id="figure_1">
  <g id="patch_1">
   <path d="M 0 353.088 
L 1000.170938 353.088 
L 1000.170938 0 
L 0 0 
z
" style="fill: #ffffff"/>
  </g>
  <g id="axes_1">
   <g id="patch_2">
    <path d="M 39.992188 285.636617 
L 337.191535 285.636617 
L 337.191535 59.712 
L 39.992188 59.712 
z
" style="fill: #ffffff"/>
   </g>
   <g id="FillBetweenPolyCollection_1">
    <defs>
     <path id="mfd63577bb5" d="M 53.501249 -144.439173 
L 53.501249 -98.950326 
L 54.241471 -98.843012 
L 54.981694 -98.886526 
L 55.721916 -99.126176 
L 56.462139 -99.071612 
L 57.202361 -99.08855 
L 57.942584 -98.950609 
L 58.682806 -99.277636 
L 59.423029 -99.189564 
L 60.163252 -99.155047 
L 60.903474 -99.074526 
L 61.643697 -99.271811 
L 62.383919 -99.369561 
L 63.124142 -99.340514 
L 63.864364 -99.34318 
L 64.604587 -99.555774 
L 65.344809 -99.112695 
L 66.085032 -99.243492 
L 66.825254 -99.186153 
L 67.565477 -99.181766 
L 68.305699 -99.371337 
L 69.045922 -99.263987 
L 69.786144 -99.34386 
L 70.526367 -99.393485 
L 71.26659 -99.497414 
L 72.006812 -99.168039 
L 72.747035 -99.366488 
L 73.487257 -99.475652 
L 74.22748 -99.325454 
L 74.967702 -99.261552 
L 75.707925 -99.292685 
L 76.448147 -99.261657 
L 77.18837 -99.182883 
L 77.928592 -99.15842 
L 78.668815 -98.97984 
L 79.409037 -99.062018 
L 80.14926 -98.967072 
L 80.889482 -99.140218 
L 81.629705 -99.054623 
L 82.369928 -99.092099 
L 83.11015 -99.213047 
L 83.850373 -99.296193 
L 84.590595 -98.943426 
L 85.330818 -95.873346 
L 86.07104 -96.051043 
L 86.811263 -95.958164 
L 87.551485 -95.511762 
L 88.291708 -96.081765 
L 89.03193 -95.646725 
L 89.772153 -95.97054 
L 90.512375 -95.870423 
L 91.252598 -95.856086 
L 91.992821 -95.754398 
L 92.733043 -99.023685 
L 93.473266 -99.049232 
L 94.213488 -98.996403 
L 94.953711 -98.746778 
L 95.693933 -99.002025 
L 96.434156 -98.637829 
L 97.174378 -98.649757 
L 97.914601 -98.950676 
L 98.654823 -98.638061 
L 99.395046 -99.155413 
L 100.135268 -98.692802 
L 100.875491 -98.456458 
L 101.615713 -98.752248 
L 102.355936 -98.659364 
L 103.096159 -98.589847 
L 103.836381 -98.637348 
L 104.576604 -98.680774 
L 105.316826 -98.724515 
L 106.057049 -98.672487 
L 106.797271 -98.426366 
L 107.537494 -98.276222 
L 108.277716 -98.741946 
L 109.017939 -94.986651 
L 109.758161 -95.009359 
L 110.498384 -94.953168 
L 111.238606 -94.907882 
L 111.978829 -96.635774 
L 112.719051 -96.455033 
L 113.459274 -96.335198 
L 114.199497 -96.514567 
L 114.939719 -96.404742 
L 115.679942 -96.541813 
L 116.420164 -96.129074 
L 117.160387 -99.103043 
L 117.900609 -97.86249 
L 118.640832 -98.057922 
L 119.381054 -98.101501 
L 120.121277 -95.169397 
L 120.861499 -94.818638 
L 121.601722 -95.135499 
L 122.341944 -95.082977 
L 123.082167 -94.858152 
L 123.822389 -95.012578 
L 124.562612 -95.16809 
L 125.302835 -95.236478 
L 126.043057 -95.350518 
L 126.78328 -95.158986 
L 127.523502 -95.300362 
L 128.263725 -94.146911 
L 129.003947 -93.590934 
L 129.74417 -93.051412 
L 130.484392 -93.41942 
L 131.224615 -93.117154 
L 131.964837 -93.119507 
L 132.70506 -93.072695 
L 133.445282 -93.689252 
L 134.185505 -93.251873 
L 134.925727 -93.327739 
L 135.66595 -93.229582 
L 136.406173 -93.275 
L 137.146395 -93.223686 
L 137.886618 -93.637593 
L 138.62684 -93.253575 
L 139.367063 -93.231264 
L 140.107285 -93.208018 
L 140.847508 -93.164209 
L 141.58773 -93.1409 
L 142.327953 -93.095964 
L 143.068175 -93.126667 
L 143.808398 -93.097935 
L 144.54862 -93.120048 
L 145.288843 -92.967375 
L 146.029065 -93.450977 
L 146.769288 -93.291574 
L 147.509511 -93.173961 
L 148.249733 -93.322087 
L 148.989956 -93.40041 
L 149.730178 -93.448788 
L 150.470401 -93.311081 
L 151.210623 -93.254339 
L 151.950846 -93.198902 
L 152.691068 -92.694513 
L 153.431291 -93.030511 
L 154.171513 -93.597385 
L 154.911736 -93.299508 
L 155.651958 -93.366581 
L 156.392181 -93.019058 
L 157.132403 -93.157387 
L 157.872626 -92.043981 
L 158.612849 -90.407201 
L 159.353071 -90.283273 
L 160.093294 -90.462073 
L 160.833516 -90.560768 
L 161.573739 -90.590133 
L 162.313961 -90.57277 
L 163.054184 -90.531524 
L 163.794406 -90.244872 
L 164.534629 -91.228465 
L 165.274851 -91.291653 
L 166.015074 -91.805535 
L 166.755296 -91.617175 
L 167.495519 -91.511095 
L 168.235742 -91.556055 
L 168.975964 -91.54204 
L 169.716187 -91.588312 
L 170.456409 -92.348531 
L 171.196632 -91.41415 
L 171.936854 -91.22662 
L 172.677077 -90.482108 
L 173.417299 -90.272136 
L 174.157522 -90.380053 
L 174.897744 -90.348533 
L 175.637967 -90.391605 
L 176.378189 -90.477209 
L 177.118412 -90.444145 
L 177.858634 -90.762981 
L 178.598857 -90.554191 
L 179.33908 -90.018299 
L 180.079302 -90.229816 
L 180.819525 -90.162014 
L 181.559747 -89.969946 
L 182.29997 -89.869235 
L 183.040192 -89.682285 
L 183.780415 -89.830269 
L 184.520637 -89.935152 
L 185.26086 -89.447561 
L 186.001082 -89.774323 
L 186.741305 -89.540289 
L 187.481527 -89.863693 
L 188.22175 -89.483466 
L 188.961972 -89.545889 
L 189.702195 -89.553959 
L 190.442418 -89.065347 
L 191.18264 -88.769876 
L 191.922863 -86.141609 
L 192.663085 -86.021215 
L 193.403308 -86.159518 
L 194.14353 -86.051408 
L 194.883753 -86.146133 
L 195.623975 -86.067126 
L 196.364198 -86.210344 
L 197.10442 -85.704725 
L 197.844643 -85.852094 
L 198.584865 -85.491991 
L 199.325088 -85.41308 
L 200.06531 -85.747498 
L 200.805533 -85.799501 
L 201.545756 -85.652571 
L 202.285978 -85.938921 
L 203.026201 -86.088881 
L 203.766423 -85.918259 
L 204.506646 -86.129985 
L 205.246868 -86.058866 
L 205.987091 -85.609827 
L 206.727313 -85.869303 
L 207.467536 -86.0456 
L 208.207758 -85.830155 
L 208.947981 -85.774642 
L 209.688203 -85.603398 
L 210.428426 -85.942317 
L 211.168648 -85.997424 
L 211.908871 -85.927743 
L 212.649094 -85.862488 
L 213.389316 -85.985064 
L 214.129539 -86.268557 
L 214.869761 -86.260121 
L 215.609984 -86.241862 
L 216.350206 -86.249397 
L 217.090429 -86.363631 
L 217.830651 -86.33795 
L 218.570874 -86.236459 
L 219.311096 -86.32687 
L 220.051319 -86.06586 
L 220.791541 -86.145137 
L 221.531764 -86.240776 
L 222.271986 -86.164918 
L 223.012209 -86.070668 
L 223.752432 -86.091109 
L 224.492654 -86.21862 
L 225.232877 -86.417763 
L 225.973099 -86.492123 
L 226.713322 -86.374423 
L 227.453544 -86.518463 
L 228.193767 -86.330193 
L 228.933989 -86.471707 
L 229.674212 -86.401073 
L 230.414434 -86.417938 
L 231.154657 -86.3919 
L 231.894879 -86.587088 
L 232.635102 -86.127519 
L 233.375324 -86.597713 
L 234.115547 -86.668367 
L 234.85577 -86.633198 
L 235.595992 -86.842803 
L 236.336215 -86.735382 
L 237.076437 -86.639167 
L 237.81666 -86.751042 
L 238.556882 -86.738219 
L 239.297105 -86.867786 
L 240.037327 -86.661536 
L 240.77755 -86.507318 
L 241.517772 -86.949944 
L 242.257995 -86.804315 
L 242.998217 -86.569765 
L 243.73844 -86.851791 
L 244.478662 -86.790683 
L 245.218885 -86.804758 
L 245.959108 -86.508494 
L 246.69933 -86.973284 
L 247.439553 -86.818061 
L 248.179775 -86.085934 
L 248.919998 -86.165493 
L 249.66022 -86.732583 
L 250.400443 -86.274971 
L 251.140665 -86.210359 
L 251.880888 -85.841032 
L 252.62111 -85.956458 
L 253.361333 -85.85492 
L 254.101555 -85.918813 
L 254.841778 -85.403824 
L 255.582001 -85.788426 
L 256.322223 -85.765925 
L 257.062446 -85.789996 
L 257.802668 -85.442234 
L 258.542891 -86.015433 
L 259.283113 -86.1963 
L 260.023336 -85.724965 
L 260.763558 -85.91227 
L 261.503781 -85.947029 
L 262.244003 -86.116451 
L 262.984226 -85.926423 
L 263.724448 -85.273906 
L 264.464671 -85.87355 
L 265.204893 -84.829127 
L 265.945116 -85.123393 
L 266.685339 -84.632605 
L 267.425561 -84.64614 
L 268.165784 -84.65387 
L 268.906006 -84.741863 
L 269.646229 -84.462612 
L 270.386451 -84.271045 
L 271.126674 -84.500672 
L 271.866896 -84.310999 
L 272.607119 -84.293442 
L 273.347341 -84.435216 
L 274.087564 -84.691 
L 274.827786 -84.346908 
L 275.568009 -84.27797 
L 276.308231 -84.47604 
L 277.048454 -84.383348 
L 277.788677 -84.30797 
L 278.528899 -85.180665 
L 279.269122 -86.045005 
L 280.009344 -86.068024 
L 280.749567 -86.070883 
L 281.489789 -86.094002 
L 282.230012 -86.112007 
L 282.970234 -85.9419 
L 283.710457 -86.108652 
L 284.450679 -85.546 
L 285.190902 -85.565981 
L 285.931124 -85.816425 
L 286.671347 -85.667794 
L 287.411569 -85.547986 
L 288.151792 -85.793807 
L 288.892015 -85.264352 
L 289.632237 -85.55104 
L 290.37246 -85.482435 
L 291.112682 -85.563118 
L 291.852905 -85.529929 
L 292.593127 -83.954198 
L 293.33335 -85.305112 
L 294.073572 -85.477141 
L 294.813795 -85.355856 
L 295.554017 -85.399451 
L 296.29424 -86.26651 
L 297.034462 -86.567548 
L 297.774685 -86.434131 
L 298.514907 -86.325764 
L 299.25513 -86.553772 
L 299.995353 -86.633839 
L 300.735575 -86.41986 
L 301.475798 -86.528728 
L 302.21602 -86.572639 
L 302.956243 -86.722268 
L 303.696465 -86.675145 
L 304.436688 -86.889943 
L 305.17691 -86.649681 
L 305.917133 -86.827078 
L 306.657355 -86.623066 
L 307.397578 -85.776283 
L 308.1378 -85.633313 
L 308.878023 -86.416941 
L 309.618245 -86.32126 
L 310.358468 -86.621654 
L 311.098691 -86.302054 
L 311.838913 -86.439357 
L 312.579136 -85.895529 
L 313.319358 -86.270391 
L 314.059581 -86.379329 
L 314.799803 -86.485371 
L 315.540026 -87.289779 
L 316.280248 -86.915648 
L 317.020471 -86.811105 
L 317.760693 -86.900486 
L 318.500916 -87.099346 
L 319.241138 -87.643113 
L 319.981361 -87.116832 
L 320.721583 -87.154379 
L 321.461806 -87.017044 
L 322.202029 -87.356906 
L 322.942251 -87.881025 
L 323.682474 -88.337714 
L 323.682474 -88.337714 
L 323.682474 -88.337714 
L 322.942251 -90.715368 
L 322.202029 -93.137476 
L 321.461806 -93.330082 
L 320.721583 -93.185943 
L 319.981361 -93.283986 
L 319.241138 -93.274051 
L 318.500916 -92.910153 
L 317.760693 -93.322157 
L 317.020471 -93.312474 
L 316.280248 -93.424914 
L 315.540026 -93.360619 
L 314.799803 -94.00747 
L 314.059581 -93.406241 
L 313.319358 -93.424404 
L 312.579136 -93.295621 
L 311.838913 -93.191455 
L 311.098691 -93.346706 
L 310.358468 -93.410798 
L 309.618245 -93.690212 
L 308.878023 -93.76693 
L 308.1378 -93.745661 
L 307.397578 -93.638804 
L 306.657355 -93.761886 
L 305.917133 -93.466898 
L 305.17691 -93.630287 
L 304.436688 -93.464168 
L 303.696465 -93.589893 
L 302.956243 -93.462576 
L 302.21602 -94.380905 
L 301.475798 -94.668735 
L 300.735575 -94.671069 
L 299.995353 -94.539512 
L 299.25513 -94.714578 
L 298.514907 -94.802968 
L 297.774685 -94.5476 
L 297.034462 -94.702624 
L 296.29424 -96.362056 
L 295.554017 -98.935872 
L 294.813795 -99.187811 
L 294.073572 -99.134497 
L 293.33335 -99.121891 
L 292.593127 -99.293502 
L 291.852905 -99.349716 
L 291.112682 -99.077101 
L 290.37246 -99.061311 
L 289.632237 -99.199571 
L 288.892015 -98.142775 
L 288.151792 -99.621762 
L 287.411569 -99.461213 
L 286.671347 -99.628064 
L 285.931124 -99.73169 
L 285.190902 -99.783491 
L 284.450679 -99.501826 
L 283.710457 -100.074409 
L 282.970234 -99.890036 
L 282.230012 -100.443043 
L 281.489789 -100.390027 
L 280.749567 -100.727048 
L 280.009344 -100.640032 
L 279.269122 -100.69475 
L 278.528899 -100.544233 
L 277.788677 -100.764481 
L 277.048454 -100.744434 
L 276.308231 -101.051732 
L 275.568009 -102.363669 
L 274.827786 -105.951673 
L 274.087564 -105.731443 
L 273.347341 -108.049757 
L 272.607119 -107.822359 
L 271.866896 -108.396635 
L 271.126674 -108.012059 
L 270.386451 -107.277841 
L 269.646229 -106.443404 
L 268.906006 -109.030035 
L 268.165784 -110.080458 
L 267.425561 -109.870153 
L 266.685339 -109.974438 
L 265.945116 -109.778408 
L 265.204893 -109.751033 
L 264.464671 -109.667853 
L 263.724448 -109.762662 
L 262.984226 -110.032452 
L 262.244003 -110.119009 
L 261.503781 -109.959593 
L 260.763558 -110.046892 
L 260.023336 -110.10243 
L 259.283113 -110.157721 
L 258.542891 -110.103231 
L 257.802668 -109.826253 
L 257.062446 -109.820485 
L 256.322223 -109.85222 
L 255.582001 -109.727094 
L 254.841778 -110.103279 
L 254.101555 -109.918441 
L 253.361333 -110.09927 
L 252.62111 -110.489324 
L 251.880888 -110.580364 
L 251.140665 -110.331558 
L 250.400443 -110.674277 
L 249.66022 -110.477904 
L 248.919998 -110.556563 
L 248.179775 -111.088183 
L 247.439553 -110.324872 
L 246.69933 -110.27183 
L 245.959108 -110.212768 
L 245.218885 -110.254841 
L 244.478662 -110.172674 
L 243.73844 -110.475987 
L 242.998217 -110.194042 
L 242.257995 -110.370574 
L 241.517772 -110.406592 
L 240.77755 -110.186841 
L 240.037327 -110.339003 
L 239.297105 -110.348141 
L 238.556882 -110.313282 
L 237.81666 -110.352462 
L 237.076437 -109.983937 
L 236.336215 -110.603221 
L 235.595992 -110.436945 
L 234.85577 -110.603934 
L 234.115547 -110.751088 
L 233.375324 -110.539615 
L 232.635102 -110.621671 
L 231.894879 -110.939499 
L 231.154657 -110.736732 
L 230.414434 -111.014723 
L 229.674212 -111.004558 
L 228.933989 -111.024349 
L 228.193767 -110.958275 
L 227.453544 -111.303008 
L 226.713322 -110.950544 
L 225.973099 -110.998299 
L 225.232877 -111.045244 
L 224.492654 -111.039547 
L 223.752432 -110.196318 
L 223.012209 -110.550746 
L 222.271986 -110.60615 
L 221.531764 -110.611916 
L 220.791541 -110.780997 
L 220.051319 -110.866773 
L 219.311096 -109.334635 
L 218.570874 -110.618978 
L 217.830651 -110.654209 
L 217.090429 -110.192828 
L 216.350206 -110.535932 
L 215.609984 -110.615686 
L 214.869761 -110.707852 
L 214.129539 -110.644732 
L 213.389316 -109.01557 
L 212.649094 -108.82136 
L 211.908871 -109.263188 
L 211.168648 -109.285931 
L 210.428426 -109.267934 
L 209.688203 -109.126769 
L 208.947981 -109.438887 
L 208.207758 -109.441507 
L 207.467536 -109.201788 
L 206.727313 -109.516573 
L 205.987091 -109.763982 
L 205.246868 -110.526367 
L 204.506646 -110.529849 
L 203.766423 -110.577509 
L 203.026201 -110.460457 
L 202.285978 -110.484257 
L 201.545756 -109.838735 
L 200.805533 -110.473625 
L 200.06531 -110.749566 
L 199.325088 -110.801225 
L 198.584865 -110.544511 
L 197.844643 -110.425416 
L 197.10442 -110.634016 
L 196.364198 -110.517817 
L 195.623975 -110.45998 
L 194.883753 -110.586742 
L 194.14353 -108.327746 
L 193.403308 -107.10691 
L 192.663085 -107.225404 
L 191.922863 -108.457118 
L 191.18264 -109.250699 
L 190.442418 -109.380401 
L 189.702195 -109.238488 
L 188.961972 -110.801656 
L 188.22175 -112.486042 
L 187.481527 -112.714185 
L 186.741305 -112.668501 
L 186.001082 -113.010488 
L 185.26086 -112.885779 
L 184.520637 -113.209987 
L 183.780415 -113.160213 
L 183.040192 -113.285493 
L 182.29997 -113.48462 
L 181.559747 -113.202675 
L 180.819525 -113.138467 
L 180.079302 -113.322059 
L 179.33908 -113.032007 
L 178.598857 -113.225557 
L 177.858634 -113.13311 
L 177.118412 -113.226462 
L 176.378189 -113.287537 
L 175.637967 -113.365873 
L 174.897744 -113.367341 
L 174.157522 -113.441327 
L 173.417299 -113.167516 
L 172.677077 -113.442032 
L 171.936854 -113.162067 
L 171.196632 -113.232801 
L 170.456409 -113.272363 
L 169.716187 -113.616177 
L 168.975964 -113.389358 
L 168.235742 -113.753762 
L 167.495519 -113.094226 
L 166.755296 -113.278272 
L 166.015074 -112.566971 
L 165.274851 -112.567678 
L 164.534629 -112.649659 
L 163.794406 -112.560101 
L 163.054184 -112.828892 
L 162.313961 -114.418485 
L 161.573739 -112.146011 
L 160.833516 -114.120891 
L 160.093294 -117.526184 
L 159.353071 -117.527003 
L 158.612849 -117.529613 
L 157.872626 -117.921201 
L 157.132403 -116.954576 
L 156.392181 -116.916011 
L 155.651958 -116.712339 
L 154.911736 -116.654439 
L 154.171513 -116.623545 
L 153.431291 -116.898946 
L 152.691068 -116.909451 
L 151.950846 -117.098914 
L 151.210623 -117.03103 
L 150.470401 -116.944113 
L 149.730178 -116.935279 
L 148.989956 -117.837858 
L 148.249733 -117.646968 
L 147.509511 -117.948784 
L 146.769288 -117.982401 
L 146.029065 -117.86721 
L 145.288843 -117.754749 
L 144.54862 -118.037749 
L 143.808398 -118.123198 
L 143.068175 -117.955741 
L 142.327953 -118.987758 
L 141.58773 -118.89393 
L 140.847508 -118.880908 
L 140.107285 -118.885118 
L 139.367063 -118.912883 
L 138.62684 -119.047379 
L 137.886618 -119.064508 
L 137.146395 -118.864165 
L 136.406173 -119.034431 
L 135.66595 -119.236074 
L 134.925727 -119.2211 
L 134.185505 -119.038204 
L 133.445282 -118.870225 
L 132.70506 -119.286154 
L 131.964837 -119.307292 
L 131.224615 -119.387983 
L 130.484392 -119.553834 
L 129.74417 -119.704294 
L 129.003947 -119.765649 
L 128.263725 -119.949466 
L 127.523502 -120.117785 
L 126.78328 -120.026942 
L 126.043057 -119.611355 
L 125.302835 -119.832151 
L 124.562612 -119.974367 
L 123.822389 -120.367675 
L 123.082167 -120.37628 
L 122.341944 -120.321229 
L 121.601722 -120.429804 
L 120.861499 -120.787922 
L 120.121277 -120.61258 
L 119.381054 -127.558746 
L 118.640832 -126.543549 
L 117.900609 -127.888718 
L 117.160387 -123.861614 
L 116.420164 -123.263223 
L 115.679942 -126.726466 
L 114.939719 -126.749568 
L 114.199497 -122.640041 
L 113.459274 -123.587424 
L 112.719051 -123.880219 
L 111.978829 -124.863721 
L 111.238606 -124.807386 
L 110.498384 -125.751204 
L 109.758161 -126.523218 
L 109.017939 -131.39274 
L 108.277716 -131.235051 
L 107.537494 -131.033306 
L 106.797271 -131.068128 
L 106.057049 -131.37088 
L 105.316826 -135.096857 
L 104.576604 -135.523103 
L 103.836381 -135.618158 
L 103.096159 -135.9999 
L 102.355936 -135.698513 
L 101.615713 -135.569244 
L 100.875491 -135.638641 
L 100.135268 -135.482738 
L 99.395046 -135.459963 
L 98.654823 -135.816431 
L 97.914601 -135.384052 
L 97.174378 -135.692809 
L 96.434156 -135.822517 
L 95.693933 -135.041282 
L 94.953711 -133.178651 
L 94.213488 -133.577327 
L 93.473266 -132.655281 
L 92.733043 -132.623945 
L 91.992821 -132.901463 
L 91.252598 -132.761922 
L 90.512375 -132.888155 
L 89.772153 -132.776482 
L 89.03193 -133.153801 
L 88.291708 -132.868212 
L 87.551485 -133.124374 
L 86.811263 -141.617802 
L 86.07104 -141.868942 
L 85.330818 -141.975161 
L 84.590595 -142.040441 
L 83.850373 -142.120652 
L 83.11015 -142.141609 
L 82.369928 -141.966128 
L 81.629705 -142.67451 
L 80.889482 -143.190149 
L 80.14926 -142.664035 
L 79.409037 -142.252405 
L 78.668815 -142.724566 
L 77.928592 -142.502992 
L 77.18837 -142.622226 
L 76.448147 -142.915242 
L 75.707925 -142.939158 
L 74.967702 -142.902554 
L 74.22748 -142.602725 
L 73.487257 -142.526679 
L 72.747035 -143.129208 
L 72.006812 -142.406039 
L 71.26659 -142.569239 
L 70.526367 -142.877789 
L 69.786144 -143.192447 
L 69.045922 -142.673961 
L 68.305699 -142.459205 
L 67.565477 -141.010446 
L 66.825254 -143.636244 
L 66.085032 -143.423978 
L 65.344809 -143.43823 
L 64.604587 -143.249872 
L 63.864364 -143.539094 
L 63.124142 -144.11512 
L 62.383919 -143.463613 
L 61.643697 -144.298049 
L 60.903474 -144.222815 
L 60.163252 -144.578087 
L 59.423029 -144.785791 
L 58.682806 -144.550263 
L 57.942584 -144.4618 
L 57.202361 -144.44015 
L 56.462139 -144.682681 
L 55.721916 -144.511766 
L 54.981694 -144.684495 
L 54.241471 -144.4177 
L 53.501249 -144.439173 
z
"/>
    </defs>
    <g clip-path="url(#p39749e9afd)">
     <use xlink:href="#mfd63577bb5" x="0" y="353.088" style="fill: #1a3a5c; fill-opacity: 0.15"/>
    </g>
   </g>
   <g id="matplotlib.axis_1">
    <g id="xtick_1">
     <g id="line2d_1">
      <defs>
       <path id="m9f61ef4e60" d="M 0 0 
L 0 3.5 
" style="stroke: #000000; stroke-width: 0.8"/>
      </defs>
      <g>
       <use xlink:href="#m9f61ef4e60" x="53.501249" y="285.636617" style="stroke: #000000; stroke-width: 0.8"/>
      </g>
     </g>
     <g id="text_1">
      <text style="font-size: 8px; font-family: 'Helvetica', 'Arial', 'DejaVu Sans', sans-serif" transform="translate(26.129012 312.94007) rotate(-30)">2025 Q1</text>
     </g>
    </g>
    <g id="xtick_2">
     <g id="line2d_2">
      <g>
       <use xlink:href="#m9f61ef4e60" x="120.121277" y="285.636617" style="stroke: #000000; stroke-width: 0.8"/>
      </g>
     </g>
     <g id="text_2">
      <text style="font-size: 8px; font-family: 'Helvetica', 'Arial', 'DejaVu Sans', sans-serif" transform="translate(92.74904 312.94007) rotate(-30)">2025 Q2</text>
     </g>
    </g>
    <g id="xtick_3">
     <g id="line2d_3">
      <g>
       <use xlink:href="#m9f61ef4e60" x="187.481527" y="285.636617" style="stroke: #000000; stroke-width: 0.8"/>
      </g>
     </g>
     <g id="text_3">
      <text style="font-size: 8px; font-family: 'Helvetica', 'Arial', 'DejaVu Sans', sans-serif" transform="translate(160.10929 312.94007) rotate(-30)">2025 Q3</text>
     </g>
    </g>
    <g id="xtick_4">
     <g id="line2d_4">
      <g>
       <use xlink:href="#m9f61ef4e60" x="255.582001" y="285.636617" style="stroke: #000000; stroke-width: 0.8"/>
      </g>
     </g>
     <g id="text_4">
      <text style="font-size: 8px; font-family: 'Helvetica', 'Arial', 'DejaVu Sans', sans-serif" transform="translate(228.209763 312.94007) rotate(-30)">2025 Q4</text>
     </g>
    </g>
    <g id="xtick_5">
     <g id="line2d_5">
      <g>
       <use xlink:href="#m9f61ef4e60" x="323.682474" y="285.636617" style="stroke: #000000; stroke-width: 0.8"/>
      </g>
     </g>
     <g id="text_5">
      <text style="font-size: 8px; font-family: 'Helvetica', 'Arial', 'DejaVu Sans', sans-serif" transform="translate(296.310237 312.94007) rotate(-30)">2026 Q1</text>
     </g>
    </g>
   </g>
   <g id="matplotlib.axis_2">
    <g id="ytick_1">
     <g id="line2d_6">
      <path d="M 39.992188 264.750286 
L 337.191535 264.750286 
" clip-path="url(#p39749e9afd)" style="fill: none; stroke: #e0e0e0; stroke-width: 0.6; stroke-linecap: square"/>
     </g>
     <g id="line2d_7">
      <defs>
       <path id="me89d0b6c21" d="M 0 0 
L -3.5 0 
" style="stroke: #000000; stroke-width: 0.8"/>
      </defs>
      <g>
       <use xlink:href="#me89d0b6c21" x="39.992188" y="264.750286" style="stroke: #000000; stroke-width: 0.8"/>
      </g>
     </g>
     <g id="text_6">
      <text style="font-size: 8px; font-family: 'Helvetica', 'Arial', 'DejaVu Sans', sans-serif; text-anchor: end" x="32.992188" y="267.613411" transform="rotate(-0 32.992188 267.613411)">100</text>
     </g>
    </g>
    <g id="ytick_2">
     <g id="line2d_8">
      <path d="M 39.992188 218.351121 
L 337.191535 218.351121 
" clip-path="url(#p39749e9afd)" style="fill: none; stroke: #e0e0e0; stroke-width: 0.6; stroke-linecap: square"/>
     </g>
     <g id="line2d_9">
      <g>
       <use xlink:href="#me89d0b6c21" x="39.992188" y="218.351121" style="stroke: #000000; stroke-width: 0.8"/>
      </g>
     </g>
     <g id="text_7">
      <text style="font-size: 8px; font-family: 'Helvetica', 'Arial', 'DejaVu Sans', sans-serif; text-anchor: end" x="32.992188" y="221.214246" transform="rotate(-0 32.992188 221.214246)">200</text>
     </g>
    </g>
    <g id="ytick_3">
     <g id="line2d_10">
      <path d="M 39.992188 171.951955 
L 337.191535 171.951955 
" clip-path="url(#p39749e9afd)" style="fill: none; stroke: #e0e0e0; stroke-width: 0.6; stroke-linecap: square"/>
     </g>
     <g id="line2d_11">
      <g>
       <use xlink:href="#me89d0b6c21" x="39.992188" y="171.951955" style="stroke: #000000; stroke-width: 0.8"/>
      </g>
     </g>
     <g id="text_8">
      <text style="font-size: 8px; font-family: 'Helvetica', 'Arial', 'DejaVu Sans', sans-serif; text-anchor: end" x="32.992188" y="174.81508" transform="rotate(-0 32.992188 174.81508)">300</text>
     </g>
    </g>
    <g id="ytick_4">
     <g id="line2d_12">
      <path d="M 39.992188 125.55279 
L 337.191535 125.55279 
" clip-path="url(#p39749e9afd)" style="fill: none; stroke: #e0e0e0; stroke-width: 0.6; stroke-linecap: square"/>
     </g>
     <g id="line2d_13">
      <g>
       <use xlink:href="#me89d0b6c21" x="39.992188" y="125.55279" style="stroke: #000000; stroke-width: 0.8"/>
      </g>
     </g>
     <g id="text_9">
      <text style="font-size: 8px; font-family: 'Helvetica', 'Arial', 'DejaVu Sans', sans-serif; text-anchor: end" x="32.992188" y="128.415915" transform="rotate(-0 32.992188 128.415915)">400</text>
     </g>
    </g>
    <g id="ytick_5">
     <g id="line2d_14">
      <path d="M 39.992188 79.153624 
L 337.191535 79.153624 
" clip-path="url(#p39749e9afd)" style="fill: none; stroke: #e0e0e0; stroke-width: 0.6; stroke-linecap: square"/>
     </g>
     <g id="line2d_15">
      <g>
       <use xlink:href="#me89d0b6c21" x="39.992188" y="79.153624" style="stroke: #000000; stroke-width: 0.8"/>
      </g>
     </g>
     <g id="text_10">
      <text style="font-size: 8px; font-family: 'Helvetica', 'Arial', 'DejaVu Sans', sans-serif; text-anchor: end" x="32.992188" y="82.016749" transform="rotate(-0 32.992188 82.016749)">500</text>
     </g>
    </g>
    <g id="text_11">
     <text style="font-size: 9px; font-family: 'Helvetica', 'Arial', 'DejaVu Sans', sans-serif; text-anchor: middle" x="13.751719" y="172.674309" transform="rotate(-90 13.751719 172.674309)">Index level (base_date 2026-01-01 = 100)</text>
    </g>
   </g>
   <g id="line2d_16">
    <path d="M 53.501249 231.502406 
L 54.241471 231.645905 
L 55.721916 231.728364 
L 56.462139 231.610407 
L 57.202361 231.650939 
L 57.942584 232.232352 
L 58.682806 232.426582 
L 60.163252 232.398952 
L 60.903474 232.768559 
L 61.643697 232.430692 
L 62.383919 234.674722 
L 63.124142 233.418671 
L 63.864364 233.464042 
L 64.604587 234.013975 
L 65.344809 233.781003 
L 66.085032 233.83657 
L 66.825254 233.631822 
L 67.565477 233.854919 
L 68.305699 233.710076 
L 69.786144 233.708637 
L 70.526367 233.937112 
L 71.26659 235.364056 
L 72.006812 233.908759 
L 72.747035 235.138712 
L 73.487257 233.904394 
L 74.22748 234.084319 
L 74.967702 233.770302 
L 75.707925 233.941319 
L 76.448147 236.185016 
L 77.18837 235.820577 
L 77.928592 236.109289 
L 78.668815 237.542991 
L 79.409037 238.548588 
L 80.14926 238.670119 
L 80.889482 238.607161 
L 82.369928 239.023796 
L 83.11015 238.85701 
L 83.850373 239.550974 
L 84.590595 239.898454 
L 85.330818 239.817395 
L 86.07104 240.057491 
L 86.811263 241.023946 
L 87.551485 239.991749 
L 88.291708 239.859066 
L 89.03193 239.914801 
L 89.772153 240.112954 
L 91.252598 239.858384 
L 91.992821 239.965007 
L 94.213488 239.61055 
L 95.693933 239.807854 
L 96.434156 239.637559 
L 98.654823 239.810507 
L 99.395046 243.280836 
L 100.135268 243.144889 
L 102.355936 243.321611 
L 104.576604 243.259535 
L 105.316826 243.393782 
L 106.057049 244.315061 
L 107.537494 244.276786 
L 111.238606 244.69194 
L 113.459274 244.597275 
L 114.199497 244.728062 
L 114.939719 244.468426 
L 115.679942 244.791105 
L 116.420164 244.610539 
L 117.900609 244.810474 
L 120.121277 244.903385 
L 120.861499 244.61766 
L 121.601722 244.526708 
L 122.341944 244.219179 
L 124.562612 244.497968 
L 126.043057 244.301537 
L 128.263725 244.237224 
L 129.003947 244.424369 
L 129.74417 244.184069 
L 131.224615 244.277426 
L 131.964837 244.476839 
L 132.70506 244.288078 
L 133.445282 244.470439 
L 134.185505 244.102843 
L 134.925727 244.389761 
L 135.66595 244.164551 
L 136.406173 244.217227 
L 137.146395 246.861689 
L 137.886618 247.093575 
L 138.62684 246.942154 
L 140.107285 247.051245 
L 140.847508 246.082336 
L 141.58773 246.32358 
L 142.327953 246.309693 
L 143.068175 246.178758 
L 143.808398 246.490195 
L 144.54862 246.45688 
L 145.288843 246.699815 
L 146.769288 246.403258 
L 147.509511 246.075277 
L 148.989956 246.705501 
L 150.470401 246.377265 
L 151.210623 247.936955 
L 151.950846 250.414071 
L 152.691068 251.287523 
L 155.651958 251.452993 
L 156.392181 251.392797 
L 157.132403 251.500471 
L 157.872626 251.450247 
L 158.612849 251.545882 
L 159.353071 251.529386 
L 160.093294 251.341978 
L 160.833516 251.385455 
L 161.573739 251.298252 
L 163.054184 251.51243 
L 163.794406 251.358231 
L 164.534629 251.448616 
L 165.274851 251.76987 
L 166.015074 251.872589 
L 166.755296 251.797243 
L 167.495519 251.860318 
L 168.235742 251.318818 
L 168.975964 251.090912 
L 169.716187 251.113383 
L 170.456409 251.389625 
L 171.196632 251.851426 
L 171.936854 251.778732 
L 174.157522 252.187814 
L 174.897744 252.033995 
L 175.637967 252.001742 
L 177.118412 252.23062 
L 177.858634 252.237112 
L 178.598857 252.703739 
L 181.559747 252.727204 
L 182.29997 252.991679 
L 183.040192 253.831011 
L 183.780415 253.150903 
L 184.520637 253.864772 
L 185.26086 253.886452 
L 186.001082 253.785746 
L 187.481527 253.969797 
L 188.22175 253.730159 
L 189.702195 254.12172 
L 190.442418 253.960397 
L 191.922863 254.179603 
L 192.663085 254.067949 
L 197.10442 254.087868 
L 198.584865 253.866205 
L 199.325088 253.9041 
L 200.06531 253.769329 
L 201.545756 254.071302 
L 203.766423 254.172047 
L 205.987091 254.029076 
L 206.727313 253.991397 
L 207.467536 254.206479 
L 208.947981 254.142236 
L 209.688203 254.225299 
L 211.908871 254.083539 
L 212.649094 254.239238 
L 213.389316 253.994283 
L 214.129539 254.113688 
L 214.869761 254.033935 
L 215.609984 254.19593 
L 216.350206 253.686292 
L 217.090429 253.763289 
L 218.570874 253.541194 
L 219.311096 253.957107 
L 220.051319 253.517057 
L 220.791541 253.809216 
L 221.531764 253.87363 
L 222.271986 254.767844 
L 224.492654 255.210978 
L 225.232877 255.106697 
L 227.453544 255.26725 
L 229.674212 255.056288 
L 230.414434 256.106093 
L 231.154657 256.092443 
L 231.894879 256.208017 
L 233.375324 256.129648 
L 234.115547 256.293693 
L 236.336215 256.267111 
L 237.076437 256.524517 
L 237.81666 256.558115 
L 238.556882 257.490821 
L 239.297105 257.453134 
L 240.037327 257.565242 
L 240.77755 257.459628 
L 241.517772 257.474821 
L 242.257995 258.008602 
L 242.998217 257.532097 
L 243.73844 258.500559 
L 244.478662 258.395091 
L 245.959108 258.701345 
L 246.69933 258.120193 
L 247.439553 257.80416 
L 248.179775 257.699694 
L 250.400443 257.807826 
L 251.140665 258.04579 
L 251.880888 260.023265 
L 252.62111 259.862819 
L 254.101555 260.512773 
L 254.841778 260.21583 
L 255.582001 260.300585 
L 257.802668 260.121329 
L 259.283113 260.329509 
L 260.023336 260.186771 
L 260.763558 260.605636 
L 261.503781 260.34383 
L 262.244003 260.749591 
L 262.984226 260.66252 
L 264.464671 260.950779 
L 265.204893 262.430834 
L 267.425561 262.377941 
L 270.386451 262.566198 
L 271.126674 261.324118 
L 271.866896 262.50484 
L 272.607119 262.571696 
L 273.347341 262.488866 
L 274.087564 262.525927 
L 275.568009 262.339745 
L 276.308231 262.729693 
L 277.048454 261.15177 
L 278.528899 260.885978 
L 279.269122 260.955803 
L 280.009344 260.902765 
L 280.749567 260.963405 
L 282.230012 260.750242 
L 282.970234 260.929491 
L 283.710457 259.850657 
L 284.450679 259.668748 
L 285.931124 259.640043 
L 286.671347 261.311571 
L 287.411569 261.466498 
L 288.151792 262.398483 
L 289.632237 262.314319 
L 290.37246 262.548318 
L 291.852905 262.781565 
L 293.33335 263.533235 
L 294.073572 263.671181 
L 294.813795 263.405441 
L 297.034462 264.238451 
L 297.774685 264.406862 
L 298.514907 264.332822 
L 299.25513 264.612194 
L 299.995353 264.722613 
L 300.735575 264.586077 
L 301.475798 264.700832 
L 303.696465 264.643235 
L 304.436688 264.350267 
L 305.17691 264.746111 
L 306.657355 264.48764 
L 308.1378 264.77843 
L 308.878023 264.758678 
L 309.618245 264.33802 
L 310.358468 264.781572 
L 311.098691 264.396165 
L 311.838913 264.714967 
L 313.319358 264.6949 
L 314.059581 264.658912 
L 314.799803 264.788777 
L 315.540026 264.475443 
L 316.280248 264.308421 
L 317.760693 264.613606 
L 319.241138 264.803965 
L 319.981361 264.864352 
L 320.721583 264.779213 
L 322.942251 264.76256 
L 323.682474 264.750286 
L 323.682474 264.750286 
" clip-path="url(#p39749e9afd)" style="fill: none; stroke: #1a3a5c; stroke-width: 1.6; stroke-linecap: square"/>
   </g>
   <g id="line2d_17">
    <path d="M 39.992188 264.750286 
L 337.191535 264.750286 
" clip-path="url(#p39749e9afd)" style="fill: none; stroke-dasharray: 2.22,0.96; stroke-dashoffset: 0; stroke: #555555; stroke-opacity: 0.5; stroke-width: 0.6"/>
   </g>
   <g id="patch_3">
    <path d="M 39.992188 285.636617 
L 337.191535 285.636617 
" style="fill: none; stroke: #888888; stroke-width: 0.6; stroke-linejoin: miter; stroke-linecap: square"/>
   </g>
   <g id="text_12">
    <text style="font-size: 11px; font-family: 'Helvetica', 'Arial', 'DejaVu Sans', sans-serif; text-anchor: middle; fill: #1a3a5c" x="188.591861" y="53.712" transform="rotate(-0 188.591861 53.712)">TPRR-F (Frontier)</text>
   </g>
  </g>
  <g id="axes_2">
   <g id="patch_4">
    <path d="M 367.881889 285.636617 
L 665.081236 285.636617 
L 665.081236 59.712 
L 367.881889 59.712 
z
" style="fill: #ffffff"/>
   </g>
   <g id="FillBetweenPolyCollection_2">
    <defs>
     <path id="m0d44374393" d="M 381.39095 -168.623072 
L 381.39095 -102.003109 
L 382.131173 -102.104249 
L 382.871395 -101.835746 
L 383.611618 -101.959164 
L 384.35184 -100.691931 
L 385.092063 -98.60095 
L 385.832285 -98.640447 
L 386.572508 -98.683767 
L 387.31273 -98.643894 
L 388.052953 -98.456461 
L 388.793175 -98.371398 
L 389.533398 -98.50781 
L 390.27362 -98.501033 
L 391.013843 -98.425897 
L 391.754066 -98.544528 
L 392.494288 -98.560204 
L 393.234511 -98.955117 
L 393.974733 -98.781159 
L 394.714956 -99.070025 
L 395.455178 -99.002047 
L 396.195401 -98.679866 
L 396.935623 -93.573026 
L 397.675846 -93.709493 
L 398.416068 -93.51168 
L 399.156291 -93.350445 
L 399.896513 -93.393515 
L 400.636736 -93.92042 
L 401.376958 -91.536851 
L 402.117181 -90.812717 
L 402.857404 -90.62901 
L 403.597626 -90.455321 
L 404.337849 -89.989056 
L 405.078071 -90.496092 
L 405.818294 -90.460274 
L 406.558516 -90.811493 
L 407.298739 -90.823206 
L 408.038961 -90.848886 
L 408.779184 -90.907209 
L 409.519406 -91.181882 
L 410.259629 -91.765245 
L 410.999851 -91.842174 
L 411.740074 -91.787214 
L 412.480296 -91.648257 
L 413.220519 -91.909415 
L 413.960742 -91.99409 
L 414.700964 -92.018637 
L 415.441187 -92.047479 
L 416.181409 -92.095057 
L 416.921632 -90.185935 
L 417.661854 -90.273014 
L 418.402077 -90.039558 
L 419.142299 -90.318538 
L 419.882522 -90.395313 
L 420.622744 -90.433874 
L 421.362967 -90.34155 
L 422.103189 -90.667865 
L 422.843412 -90.584729 
L 423.583634 -90.627542 
L 424.323857 -90.776685 
L 425.06408 -90.648062 
L 425.804302 -92.912475 
L 426.544525 -93.410921 
L 427.284747 -93.378886 
L 428.02497 -93.466997 
L 428.765192 -93.525109 
L 429.505415 -93.401938 
L 430.245637 -93.311425 
L 430.98586 -93.350703 
L 431.726082 -93.208312 
L 432.466305 -93.314552 
L 433.206527 -93.2221 
L 433.94675 -93.173243 
L 434.686973 -93.055147 
L 435.427195 -93.300668 
L 436.167418 -93.158918 
L 436.90764 -93.109764 
L 437.647863 -93.065312 
L 438.388085 -92.965817 
L 439.128308 -93.026531 
L 439.86853 -93.129584 
L 440.608753 -93.123161 
L 441.348975 -93.308833 
L 442.089198 -93.16493 
L 442.82942 -93.775329 
L 443.569643 -94.687921 
L 444.309865 -94.680687 
L 445.050088 -94.828895 
L 445.790311 -94.782456 
L 446.530533 -95.065817 
L 447.270756 -95.038432 
L 448.010978 -94.973239 
L 448.751201 -94.834731 
L 449.491423 -94.790417 
L 450.231646 -94.732227 
L 450.971868 -94.781501 
L 451.712091 -94.875889 
L 452.452313 -94.732452 
L 453.192536 -95.057125 
L 453.932758 -94.731092 
L 454.672981 -94.763462 
L 455.413203 -94.783948 
L 456.153426 -94.90831 
L 456.893649 -94.729173 
L 457.633871 -94.825877 
L 458.374094 -94.95069 
L 459.114316 -95.590485 
L 459.854539 -94.866404 
L 460.594761 -95.07365 
L 461.334984 -95.155425 
L 462.075206 -95.282497 
L 462.815429 -94.855476 
L 463.555651 -95.259888 
L 464.295874 -95.057281 
L 465.036096 -95.121141 
L 465.776319 -94.849083 
L 466.516541 -94.901953 
L 467.256764 -94.807931 
L 467.996987 -94.748295 
L 468.737209 -94.88203 
L 469.477432 -94.869484 
L 470.217654 -94.806654 
L 470.957877 -94.569345 
L 471.698099 -94.994134 
L 472.438322 -94.736684 
L 473.178544 -94.952178 
L 473.918767 -94.965749 
L 474.658989 -95.207996 
L 475.399212 -95.224698 
L 476.139434 -95.098329 
L 476.879657 -94.986076 
L 477.619879 -95.132357 
L 478.360102 -94.99166 
L 479.100325 -94.882516 
L 479.840547 -94.944625 
L 480.58077 -94.972673 
L 481.320992 -94.837832 
L 482.061215 -94.846298 
L 482.801437 -94.808964 
L 483.54166 -94.713937 
L 484.281882 -94.583758 
L 485.022105 -94.642168 
L 485.762327 -94.656794 
L 486.50255 -94.608943 
L 487.242772 -92.467134 
L 487.982995 -92.111049 
L 488.723217 -92.154878 
L 489.46344 -92.474188 
L 490.203663 -92.138634 
L 490.943885 -92.431572 
L 491.684108 -92.343622 
L 492.42433 -92.560922 
L 493.164553 -92.349995 
L 493.904775 -92.415979 
L 494.644998 -92.554981 
L 495.38522 -92.020682 
L 496.125443 -92.040018 
L 496.865665 -91.983643 
L 497.605888 -92.270812 
L 498.34611 -92.196266 
L 499.086333 -92.415815 
L 499.826555 -92.2614 
L 500.566778 -92.294839 
L 501.307001 -92.056599 
L 502.047223 -92.280406 
L 502.787446 -92.198279 
L 503.527668 -92.205601 
L 504.267891 -92.627684 
L 505.008113 -92.59195 
L 505.748336 -92.488312 
L 506.488558 -92.413158 
L 507.228781 -92.645037 
L 507.969003 -92.519326 
L 508.709226 -92.528187 
L 509.449448 -92.5011 
L 510.189671 -92.490354 
L 510.929893 -92.638267 
L 511.670116 -92.589008 
L 512.410339 -92.542791 
L 513.150561 -92.749094 
L 513.890784 -92.755912 
L 514.631006 -92.803062 
L 515.371229 -92.670179 
L 516.111451 -92.686175 
L 516.851674 -92.513954 
L 517.591896 -92.800951 
L 518.332119 -92.68925 
L 519.072341 -92.648854 
L 519.812564 -92.625305 
L 520.552786 -92.593504 
L 521.293009 -92.390003 
L 522.033232 -92.354126 
L 522.773454 -92.109904 
L 523.513677 -92.136196 
L 524.253899 -92.091804 
L 524.994122 -92.168073 
L 525.734344 -92.113502 
L 526.474567 -91.835111 
L 527.214789 -91.671499 
L 527.955012 -91.443088 
L 528.695234 -92.015397 
L 529.435457 -91.844787 
L 530.175679 -93.577582 
L 530.915902 -91.915412 
L 531.656124 -91.891322 
L 532.396347 -91.488039 
L 533.13657 -92.060482 
L 533.876792 -92.109518 
L 534.617015 -91.993506 
L 535.357237 -92.142474 
L 536.09746 -91.727139 
L 536.837682 -92.079406 
L 537.577905 -92.149445 
L 538.318127 -91.923143 
L 539.05835 -92.543635 
L 539.798572 -92.028862 
L 540.538795 -91.869746 
L 541.279017 -92.051881 
L 542.01924 -92.04469 
L 542.759462 -91.862162 
L 543.499685 -91.706236 
L 544.239908 -91.794275 
L 544.98013 -90.897241 
L 545.720353 -91.03219 
L 546.460575 -91.259842 
L 547.200798 -90.958466 
L 547.94102 -91.101613 
L 548.681243 -91.095749 
L 549.421465 -90.737398 
L 550.161688 -90.032143 
L 550.90191 -88.16262 
L 551.642133 -88.308364 
L 552.382355 -88.112854 
L 553.122578 -88.4251 
L 553.8628 -88.280608 
L 554.603023 -88.277311 
L 555.343246 -88.141598 
L 556.083468 -88.262857 
L 556.823691 -87.116004 
L 557.563913 -86.992509 
L 558.304136 -87.254913 
L 559.044358 -88.244117 
L 559.784581 -89.083142 
L 560.524803 -89.205639 
L 561.265026 -88.371195 
L 562.005248 -89.325379 
L 562.745471 -89.392195 
L 563.485693 -89.628475 
L 564.225916 -89.813891 
L 564.966138 -89.980708 
L 565.706361 -89.786824 
L 566.446584 -89.789093 
L 567.186806 -89.874963 
L 567.927029 -89.795895 
L 568.667251 -90.170641 
L 569.407474 -89.97704 
L 570.147696 -90.152813 
L 570.887919 -90.015624 
L 571.628141 -89.93934 
L 572.368364 -87.928998 
L 573.108586 -87.993507 
L 573.848809 -87.862954 
L 574.589031 -87.950308 
L 575.329254 -88.10481 
L 576.069476 -88.07002 
L 576.809699 -87.961857 
L 577.549922 -89.737243 
L 578.290144 -89.608263 
L 579.030367 -89.515073 
L 579.770589 -89.643854 
L 580.510812 -89.347978 
L 581.251034 -89.644265 
L 581.991257 -90.254301 
L 582.731479 -89.640762 
L 583.471702 -89.707038 
L 584.211924 -90.150579 
L 584.952147 -86.038993 
L 585.692369 -85.971027 
L 586.432592 -86.045496 
L 587.172814 -85.927763 
L 587.913037 -90.08485 
L 588.65326 -89.971254 
L 589.393482 -89.556549 
L 590.133705 -85.494943 
L 590.873927 -85.529732 
L 591.61415 -85.528993 
L 592.354372 -85.573239 
L 593.094595 -89.795643 
L 593.834817 -85.838246 
L 594.57504 -85.878858 
L 595.315262 -85.860492 
L 596.055485 -85.861163 
L 596.795707 -85.837857 
L 597.53593 -86.018895 
L 598.276152 -85.885268 
L 599.016375 -86.034585 
L 599.756598 -85.971877 
L 600.49682 -86.120309 
L 601.237043 -86.134754 
L 601.977265 -86.973569 
L 602.717488 -86.838325 
L 603.45771 -87.150404 
L 604.197933 -88.04833 
L 604.938155 -88.045715 
L 605.678378 -88.079118 
L 606.4186 -88.090575 
L 607.158823 -88.198488 
L 607.899045 -87.943333 
L 608.639268 -88.348645 
L 609.379491 -87.408627 
L 610.119713 -87.172328 
L 610.859936 -87.457313 
L 611.600158 -87.268828 
L 612.340381 -87.256037 
L 613.080603 -88.23917 
L 613.820826 -88.333966 
L 614.561048 -88.37788 
L 615.301271 -88.213138 
L 616.041493 -88.264129 
L 616.781716 -88.313265 
L 617.521938 -86.366604 
L 618.262161 -86.153205 
L 619.002383 -86.079442 
L 619.742606 -86.077352 
L 620.482829 -87.24677 
L 621.223051 -87.156522 
L 621.963274 -88.455097 
L 622.703496 -88.450492 
L 623.443719 -87.251688 
L 624.183941 -87.078559 
L 624.924164 -86.901628 
L 625.664386 -87.419043 
L 626.404609 -87.092495 
L 627.144831 -86.897584 
L 627.885054 -86.970822 
L 628.625276 -86.867403 
L 629.365499 -86.868641 
L 630.105721 -86.596304 
L 630.845944 -86.862827 
L 631.586167 -86.833583 
L 632.326389 -85.023871 
L 633.066612 -85.042216 
L 633.806834 -85.148881 
L 634.547057 -84.990183 
L 635.287279 -84.959411 
L 636.027502 -84.756857 
L 636.767724 -84.999479 
L 637.507947 -85.137563 
L 638.248169 -85.081589 
L 638.988392 -85.047396 
L 639.728614 -84.801918 
L 640.468837 -84.339694 
L 641.209059 -84.900255 
L 641.949282 -84.002086 
L 642.689505 -84.820901 
L 643.429727 -84.725528 
L 644.16995 -84.706815 
L 644.910172 -85.08556 
L 645.650395 -84.996223 
L 646.390617 -85.321031 
L 647.13084 -86.116493 
L 647.871062 -87.388551 
L 648.611285 -87.400074 
L 649.351507 -87.771994 
L 650.09173 -87.873608 
L 650.831952 -88.048013 
L 651.572175 -88.337714 
L 651.572175 -88.337714 
L 651.572175 -88.337714 
L 650.831952 -88.537307 
L 650.09173 -88.51305 
L 649.351507 -88.83836 
L 648.611285 -90.282154 
L 647.871062 -90.081716 
L 647.13084 -90.151088 
L 646.390617 -90.395501 
L 645.650395 -91.050668 
L 644.910172 -92.578014 
L 644.16995 -97.173162 
L 643.429727 -97.023384 
L 642.689505 -97.111673 
L 641.949282 -96.915961 
L 641.209059 -97.202717 
L 640.468837 -97.313634 
L 639.728614 -97.307675 
L 638.988392 -97.267823 
L 638.248169 -98.813962 
L 637.507947 -98.984638 
L 636.767724 -99.178947 
L 636.027502 -98.844789 
L 635.287279 -98.69875 
L 634.547057 -98.944179 
L 633.806834 -98.784969 
L 633.066612 -99.868107 
L 632.326389 -100.004812 
L 631.586167 -103.437089 
L 630.845944 -103.73559 
L 630.105721 -103.641564 
L 629.365499 -103.638014 
L 628.625276 -103.87488 
L 627.885054 -104.296411 
L 627.144831 -104.604507 
L 626.404609 -104.566562 
L 625.664386 -104.641453 
L 624.924164 -104.745146 
L 624.183941 -104.640072 
L 623.443719 -104.727646 
L 622.703496 -104.376063 
L 621.963274 -104.238709 
L 621.223051 -104.23731 
L 620.482829 -104.080332 
L 619.742606 -104.251379 
L 619.002383 -104.089666 
L 618.262161 -104.562217 
L 617.521938 -104.224678 
L 616.781716 -104.948948 
L 616.041493 -105.467463 
L 615.301271 -105.557857 
L 614.561048 -105.355085 
L 613.820826 -105.295724 
L 613.080603 -105.71245 
L 612.340381 -105.907889 
L 611.600158 -105.425987 
L 610.859936 -105.329179 
L 610.119713 -105.592122 
L 609.379491 -105.532281 
L 608.639268 -106.676392 
L 607.899045 -105.386224 
L 607.158823 -105.286262 
L 606.4186 -105.188449 
L 605.678378 -105.342925 
L 604.938155 -105.580097 
L 604.197933 -105.438674 
L 603.45771 -104.545798 
L 602.717488 -104.647085 
L 601.977265 -104.948398 
L 601.237043 -105.298529 
L 600.49682 -105.203448 
L 599.756598 -104.99613 
L 599.016375 -104.870038 
L 598.276152 -104.845573 
L 597.53593 -104.94373 
L 596.795707 -105.126725 
L 596.055485 -105.338895 
L 595.315262 -105.142991 
L 594.57504 -104.84227 
L 593.834817 -104.448274 
L 593.094595 -104.729129 
L 592.354372 -105.171603 
L 591.61415 -106.243795 
L 590.873927 -106.216694 
L 590.133705 -106.353253 
L 589.393482 -103.400311 
L 588.65326 -111.841509 
L 587.913037 -112.982662 
L 587.172814 -112.797428 
L 586.432592 -113.311755 
L 585.692369 -113.823369 
L 584.952147 -113.722654 
L 584.211924 -126.283552 
L 583.471702 -126.745244 
L 582.731479 -127.448753 
L 581.991257 -127.629138 
L 581.251034 -127.504183 
L 580.510812 -127.309789 
L 579.770589 -126.780006 
L 579.030367 -118.629132 
L 578.290144 -119.033548 
L 577.549922 -117.737075 
L 576.809699 -117.570709 
L 576.069476 -117.790494 
L 575.329254 -117.421834 
L 574.589031 -117.70582 
L 573.848809 -117.683997 
L 573.108586 -117.908396 
L 572.368364 -117.929727 
L 571.628141 -117.995737 
L 570.887919 -117.865998 
L 570.147696 -118.319371 
L 569.407474 -118.040181 
L 568.667251 -116.268104 
L 567.927029 -117.501699 
L 567.186806 -117.60207 
L 566.446584 -117.711532 
L 565.706361 -117.821619 
L 564.966138 -117.555006 
L 564.225916 -118.110892 
L 563.485693 -117.923277 
L 562.745471 -118.043955 
L 562.005248 -117.909405 
L 561.265026 -117.730809 
L 560.524803 -117.716857 
L 559.784581 -117.561399 
L 559.044358 -117.29682 
L 558.304136 -117.404397 
L 557.563913 -117.389839 
L 556.823691 -117.290217 
L 556.083468 -117.76406 
L 555.343246 -117.602473 
L 554.603023 -117.573463 
L 553.8628 -117.733563 
L 553.122578 -117.861886 
L 552.382355 -118.305077 
L 551.642133 -118.063948 
L 550.90191 -118.192378 
L 550.161688 -118.073391 
L 549.421465 -118.133488 
L 548.681243 -118.082242 
L 547.94102 -118.658452 
L 547.200798 -118.963135 
L 546.460575 -119.013761 
L 545.720353 -119.297428 
L 544.98013 -119.449042 
L 544.239908 -119.511171 
L 543.499685 -119.360638 
L 542.759462 -130.406178 
L 542.01924 -130.292959 
L 541.279017 -130.303193 
L 540.538795 -130.565159 
L 539.798572 -130.749305 
L 539.05835 -130.462074 
L 538.318127 -130.634329 
L 537.577905 -133.223337 
L 536.837682 -135.892627 
L 536.09746 -116.746361 
L 535.357237 -136.07241 
L 534.617015 -136.314676 
L 533.876792 -135.502381 
L 533.13657 -135.903505 
L 532.396347 -135.797597 
L 531.656124 -135.798886 
L 530.915902 -136.04102 
L 530.175679 -136.005985 
L 529.435457 -135.992596 
L 528.695234 -135.835353 
L 527.955012 -135.893682 
L 527.214789 -136.1908 
L 526.474567 -136.792945 
L 525.734344 -135.918999 
L 524.994122 -136.375841 
L 524.253899 -136.271154 
L 523.513677 -136.502472 
L 522.773454 -135.875662 
L 522.033232 -135.877154 
L 521.293009 -135.869729 
L 520.552786 -135.988843 
L 519.812564 -140.076987 
L 519.072341 -139.86228 
L 518.332119 -140.309263 
L 517.591896 -139.792622 
L 516.851674 -138.668918 
L 516.111451 -140.070512 
L 515.371229 -139.343514 
L 514.631006 -139.349165 
L 513.890784 -139.630346 
L 513.150561 -139.540352 
L 512.410339 -139.65861 
L 511.670116 -140.095797 
L 510.929893 -139.859643 
L 510.189671 -139.754247 
L 509.449448 -139.656175 
L 508.709226 -140.105753 
L 507.969003 -138.64089 
L 507.228781 -135.84797 
L 506.488558 -135.562299 
L 505.748336 -136.028943 
L 505.008113 -135.871419 
L 504.267891 -136.082295 
L 503.527668 -135.672943 
L 502.787446 -135.938063 
L 502.047223 -135.798143 
L 501.307001 -135.553739 
L 500.566778 -135.513207 
L 499.826555 -135.585637 
L 499.086333 -135.629309 
L 498.34611 -135.714712 
L 497.605888 -135.976832 
L 496.865665 -135.94463 
L 496.125443 -136.258941 
L 495.38522 -135.883318 
L 494.644998 -136.059478 
L 493.904775 -136.537843 
L 493.164553 -136.927367 
L 492.42433 -136.793993 
L 491.684108 -136.577134 
L 490.943885 -136.659989 
L 490.203663 -136.883781 
L 489.46344 -136.989395 
L 488.723217 -136.486281 
L 487.982995 -136.574379 
L 487.242772 -136.729926 
L 486.50255 -136.889835 
L 485.762327 -137.136281 
L 485.022105 -137.633512 
L 484.281882 -136.828405 
L 483.54166 -137.182279 
L 482.801437 -137.087944 
L 482.061215 -137.31824 
L 481.320992 -137.314322 
L 480.58077 -137.488924 
L 479.840547 -137.481666 
L 479.100325 -137.598996 
L 478.360102 -137.606631 
L 477.619879 -137.539327 
L 476.879657 -137.267903 
L 476.139434 -137.139093 
L 475.399212 -137.435817 
L 474.658989 -137.114934 
L 473.918767 -137.607995 
L 473.178544 -137.391074 
L 472.438322 -137.377988 
L 471.698099 -137.415349 
L 470.957877 -135.860027 
L 470.217654 -136.892803 
L 469.477432 -137.721632 
L 468.737209 -137.227519 
L 467.996987 -137.637425 
L 467.256764 -137.396238 
L 466.516541 -137.037281 
L 465.776319 -136.470878 
L 465.036096 -136.672274 
L 464.295874 -137.238975 
L 463.555651 -137.515198 
L 462.815429 -136.783477 
L 462.075206 -137.632189 
L 461.334984 -137.798134 
L 460.594761 -137.382305 
L 459.854539 -137.815799 
L 459.114316 -137.315757 
L 458.374094 -137.261592 
L 457.633871 -137.827979 
L 456.893649 -137.377677 
L 456.153426 -135.617633 
L 455.413203 -138.429881 
L 454.672981 -138.437451 
L 453.932758 -138.768179 
L 453.192536 -138.469935 
L 452.452313 -138.635171 
L 451.712091 -138.800213 
L 450.971868 -138.67451 
L 450.231646 -138.586276 
L 449.491423 -143.236252 
L 448.751201 -143.230775 
L 448.010978 -143.327267 
L 447.270756 -144.084103 
L 446.530533 -143.68815 
L 445.790311 -144.582528 
L 445.050088 -143.569151 
L 444.309865 -144.009894 
L 443.569643 -143.672475 
L 442.82942 -143.487192 
L 442.089198 -143.434874 
L 441.348975 -143.974898 
L 440.608753 -143.295198 
L 439.86853 -143.549847 
L 439.128308 -143.665345 
L 438.388085 -143.566933 
L 437.647863 -143.925014 
L 436.90764 -144.468332 
L 436.167418 -143.872696 
L 435.427195 -144.301554 
L 434.686973 -144.692282 
L 433.94675 -144.80686 
L 433.206527 -144.783898 
L 432.466305 -144.691667 
L 431.726082 -144.727482 
L 430.98586 -144.885684 
L 430.245637 -144.672926 
L 429.505415 -144.118861 
L 428.765192 -144.555277 
L 428.02497 -144.256624 
L 427.284747 -144.421242 
L 426.544525 -151.303755 
L 425.804302 -151.366477 
L 425.06408 -150.791984 
L 424.323857 -151.09578 
L 423.583634 -151.574938 
L 422.843412 -154.2676 
L 422.103189 -151.861452 
L 421.362967 -151.964717 
L 420.622744 -152.037411 
L 419.882522 -151.815412 
L 419.142299 -152.04114 
L 418.402077 -151.463417 
L 417.661854 -151.404242 
L 416.921632 -151.576754 
L 416.181409 -151.2938 
L 415.441187 -151.187998 
L 414.700964 -149.752001 
L 413.960742 -151.33856 
L 413.220519 -151.80844 
L 412.480296 -152.286239 
L 411.740074 -152.3923 
L 410.999851 -152.608834 
L 410.259629 -152.792494 
L 409.519406 -152.348843 
L 408.779184 -156.471946 
L 408.038961 -156.835106 
L 407.298739 -157.095636 
L 406.558516 -156.695546 
L 405.818294 -156.953163 
L 405.078071 -157.078129 
L 404.337849 -156.166377 
L 403.597626 -162.194879 
L 402.857404 -162.116985 
L 402.117181 -162.573814 
L 401.376958 -162.408835 
L 400.636736 -162.810055 
L 399.896513 -162.505288 
L 399.156291 -162.857727 
L 398.416068 -162.82367 
L 397.675846 -162.766873 
L 396.935623 -160.973689 
L 396.195401 -162.670911 
L 395.455178 -162.542627 
L 394.714956 -163.169259 
L 393.974733 -163.381261 
L 393.234511 -163.636031 
L 392.494288 -163.462444 
L 391.754066 -163.486205 
L 391.013843 -163.580729 
L 390.27362 -163.089203 
L 389.533398 -162.646302 
L 388.793175 -163.320344 
L 388.052953 -163.047679 
L 387.31273 -163.978596 
L 386.572508 -163.451777 
L 385.832285 -168.461758 
L 385.092063 -169.107478 
L 384.35184 -168.672175 
L 383.611618 -168.853008 
L 382.871395 -168.399326 
L 382.131173 -168.730017 
L 381.39095 -168.623072 
z
"/>
    </defs>
    <g clip-path="url(#p636b10b16c)">
     <use xlink:href="#m0d44374393" x="0" y="353.088" style="fill: #2c8a8a; fill-opacity: 0.15"/>
    </g>
   </g>
   <g id="matplotlib.axis_3">
    <g id="xtick_6">
     <g id="line2d_18">
      <g>
       <use xlink:href="#m9f61ef4e60" x="381.39095" y="285.636617" style="stroke: #000000; stroke-width: 0.8"/>
      </g>
     </g>
     <g id="text_13">
      <text style="font-size: 8px; font-family: 'Helvetica', 'Arial', 'DejaVu Sans', sans-serif" transform="translate(354.018713 312.94007) rotate(-30)">2025 Q1</text>
     </g>
    </g>
    <g id="xtick_7">
     <g id="line2d_19">
      <g>
       <use xlink:href="#m9f61ef4e60" x="448.010978" y="285.636617" style="stroke: #000000; stroke-width: 0.8"/>
      </g>
     </g>
     <g id="text_14">
      <text style="font-size: 8px; font-family: 'Helvetica', 'Arial', 'DejaVu Sans', sans-serif" transform="translate(420.638741 312.94007) rotate(-30)">2025 Q2</text>
     </g>
    </g>
    <g id="xtick_8">
     <g id="line2d_20">
      <g>
       <use xlink:href="#m9f61ef4e60" x="515.371229" y="285.636617" style="stroke: #000000; stroke-width: 0.8"/>
      </g>
     </g>
     <g id="text_15">
      <text style="font-size: 8px; font-family: 'Helvetica', 'Arial', 'DejaVu Sans', sans-serif" transform="translate(487.998992 312.94007) rotate(-30)">2025 Q3</text>
     </g>
    </g>
    <g id="xtick_9">
     <g id="line2d_21">
      <g>
       <use xlink:href="#m9f61ef4e60" x="583.471702" y="285.636617" style="stroke: #000000; stroke-width: 0.8"/>
      </g>
     </g>
     <g id="text_16">
      <text style="font-size: 8px; font-family: 'Helvetica', 'Arial', 'DejaVu Sans', sans-serif" transform="translate(556.099465 312.94007) rotate(-30)">2025 Q4</text>
     </g>
    </g>
    <g id="xtick_10">
     <g id="line2d_22">
      <g>
       <use xlink:href="#m9f61ef4e60" x="651.572175" y="285.636617" style="stroke: #000000; stroke-width: 0.8"/>
      </g>
     </g>
     <g id="text_17">
      <text style="font-size: 8px; font-family: 'Helvetica', 'Arial', 'DejaVu Sans', sans-serif" transform="translate(624.199938 312.94007) rotate(-30)">2026 Q1</text>
     </g>
    </g>
   </g>
   <g id="matplotlib.axis_4">
    <g id="ytick_6">
     <g id="line2d_23">
      <path d="M 367.881889 264.750286 
L 665.081236 264.750286 
" clip-path="url(#p636b10b16c)" style="fill: none; stroke: #e0e0e0; stroke-width: 0.6; stroke-linecap: square"/>
     </g>
     <g id="line2d_24">
      <g>
       <use xlink:href="#me89d0b6c21" x="367.881889" y="264.750286" style="stroke: #000000; stroke-width: 0.8"/>
      </g>
     </g>
    </g>
    <g id="ytick_7">
     <g id="line2d_25">
      <path d="M 367.881889 218.351121 
L 665.081236 218.351121 
" clip-path="url(#p636b10b16c)" style="fill: none; stroke: #e0e0e0; stroke-width: 0.6; stroke-linecap: square"/>
     </g>
     <g id="line2d_26">
      <g>
       <use xlink:href="#me89d0b6c21" x="367.881889" y="218.351121" style="stroke: #000000; stroke-width: 0.8"/>
      </g>
     </g>
    </g>
    <g id="ytick_8">
     <g id="line2d_27">
      <path d="M 367.881889 171.951955 
L 665.081236 171.951955 
" clip-path="url(#p636b10b16c)" style="fill: none; stroke: #e0e0e0; stroke-width: 0.6; stroke-linecap: square"/>
     </g>
     <g id="line2d_28">
      <g>
       <use xlink:href="#me89d0b6c21" x="367.881889" y="171.951955" style="stroke: #000000; stroke-width: 0.8"/>
      </g>
     </g>
    </g>
    <g id="ytick_9">
     <g id="line2d_29">
      <path d="M 367.881889 125.55279 
L 665.081236 125.55279 
" clip-path="url(#p636b10b16c)" style="fill: none; stroke: #e0e0e0; stroke-width: 0.6; stroke-linecap: square"/>
     </g>
     <g id="line2d_30">
      <g>
       <use xlink:href="#me89d0b6c21" x="367.881889" y="125.55279" style="stroke: #000000; stroke-width: 0.8"/>
      </g>
     </g>
    </g>
    <g id="ytick_10">
     <g id="line2d_31">
      <path d="M 367.881889 79.153624 
L 665.081236 79.153624 
" clip-path="url(#p636b10b16c)" style="fill: none; stroke: #e0e0e0; stroke-width: 0.6; stroke-linecap: square"/>
     </g>
     <g id="line2d_32">
      <g>
       <use xlink:href="#me89d0b6c21" x="367.881889" y="79.153624" style="stroke: #000000; stroke-width: 0.8"/>
      </g>
     </g>
    </g>
   </g>
   <g id="line2d_33">
    <path d="M 381.39095 220.315952 
L 382.131173 220.55039 
L 382.871395 220.33464 
L 383.611618 220.286381 
L 384.35184 220.757617 
L 385.092063 222.47893 
L 385.832285 220.284847 
L 386.572508 220.326077 
L 387.31273 220.205603 
L 388.793175 220.28215 
L 389.533398 223.427785 
L 390.27362 223.163283 
L 391.754066 223.474748 
L 392.494288 223.237351 
L 393.234511 223.396644 
L 393.974733 223.208283 
L 395.455178 223.399803 
L 396.195401 224.096374 
L 397.675846 223.165299 
L 398.416068 223.134002 
L 399.156291 223.251806 
L 399.896513 223.224492 
L 400.636736 223.497093 
L 401.376958 223.318206 
L 402.117181 223.422674 
L 402.857404 223.316055 
L 404.337849 223.328908 
L 405.078071 223.222335 
L 405.818294 223.619632 
L 406.558516 223.367448 
L 407.298739 225.263537 
L 408.038961 225.79506 
L 410.259629 225.396682 
L 411.740074 225.499816 
L 412.480296 227.047805 
L 413.220519 225.760609 
L 415.441187 225.582865 
L 416.181409 225.39759 
L 416.921632 225.755685 
L 417.661854 227.510331 
L 419.882522 227.905439 
L 420.622744 227.853453 
L 421.362967 227.579857 
L 422.103189 227.911123 
L 422.843412 227.750407 
L 423.583634 227.762294 
L 424.323857 227.937431 
L 425.804302 227.879628 
L 426.544525 228.231175 
L 427.284747 228.133418 
L 428.02497 227.862437 
L 428.765192 227.932402 
L 429.505415 228.201989 
L 430.245637 228.052828 
L 430.98586 228.608121 
L 431.726082 228.177188 
L 432.466305 229.169706 
L 433.206527 228.373224 
L 433.94675 228.968827 
L 434.686973 229.916132 
L 435.427195 229.696392 
L 436.167418 229.776479 
L 436.90764 229.708773 
L 437.647863 232.187944 
L 438.388085 232.471025 
L 439.128308 232.585019 
L 439.86853 232.835588 
L 440.608753 232.85049 
L 442.089198 233.066209 
L 442.82942 233.10258 
L 443.569643 233.508893 
L 444.309865 233.242848 
L 445.050088 233.324245 
L 445.790311 235.438884 
L 446.530533 235.700464 
L 447.270756 237.634698 
L 448.010978 235.8784 
L 448.751201 235.848993 
L 449.491423 235.704029 
L 450.231646 235.99174 
L 450.971868 235.853751 
L 452.452313 235.961404 
L 453.192536 235.867767 
L 453.932758 238.140823 
L 454.672981 237.899372 
L 455.413203 238.229459 
L 456.153426 238.35687 
L 458.374094 238.298203 
L 459.114316 237.920061 
L 459.854539 239.046317 
L 460.594761 238.948515 
L 461.334984 238.980409 
L 462.815429 238.772035 
L 463.555651 239.084276 
L 464.295874 239.518863 
L 465.036096 240.113079 
L 466.516541 240.326693 
L 467.256764 240.555889 
L 467.996987 240.625115 
L 468.737209 240.946232 
L 469.477432 240.820022 
L 470.217654 240.576456 
L 470.957877 240.678094 
L 471.698099 240.439018 
L 473.178544 240.478414 
L 473.918767 240.412491 
L 476.879657 240.674397 
L 477.619879 240.648538 
L 478.360102 240.819859 
L 479.100325 242.724081 
L 479.840547 242.606681 
L 480.58077 242.800943 
L 481.320992 242.72668 
L 482.061215 242.507774 
L 482.801437 242.419507 
L 483.54166 242.814748 
L 484.281882 243.362957 
L 485.022105 243.323641 
L 487.982995 243.771755 
L 488.723217 244.893499 
L 489.46344 245.061282 
L 490.203663 244.861842 
L 492.42433 245.162699 
L 493.164553 245.034064 
L 493.904775 245.056915 
L 494.644998 245.24239 
L 496.125443 245.243876 
L 496.865665 246.311843 
L 497.605888 246.094253 
L 498.34611 246.499342 
L 499.826555 246.390888 
L 500.566778 249.195638 
L 501.307001 246.649279 
L 502.047223 246.500425 
L 502.787446 246.604203 
L 503.527668 247.118129 
L 504.267891 247.395381 
L 505.748336 247.335466 
L 506.488558 247.399658 
L 507.228781 247.294288 
L 508.709226 247.572259 
L 510.189671 247.269738 
L 510.929893 246.68536 
L 511.670116 246.795117 
L 512.410339 246.573236 
L 513.890784 246.586732 
L 514.631006 247.575184 
L 515.371229 247.323398 
L 516.111451 249.517197 
L 516.851674 249.956348 
L 518.332119 250.218068 
L 519.072341 250.719041 
L 519.812564 250.741405 
L 520.552786 252.209136 
L 522.773454 252.051267 
L 523.513677 250.823963 
L 524.253899 250.754833 
L 524.994122 251.048671 
L 525.734344 252.170717 
L 526.474567 252.090821 
L 527.214789 252.649383 
L 527.955012 253.039328 
L 528.695234 252.884248 
L 529.435457 252.843586 
L 530.175679 252.152639 
L 530.915902 253.416117 
L 531.656124 253.090586 
L 532.396347 253.116408 
L 533.13657 253.277789 
L 533.876792 251.653257 
L 534.617015 253.104783 
L 535.357237 253.243014 
L 536.09746 254.091759 
L 536.837682 253.332366 
L 537.577905 253.282094 
L 538.318127 253.030843 
L 539.798572 253.262759 
L 540.538795 253.22748 
L 541.279017 253.051419 
L 542.01924 253.076764 
L 543.499685 253.599283 
L 545.720353 253.636006 
L 546.460575 252.789202 
L 547.200798 252.622138 
L 547.94102 253.923862 
L 548.681243 252.678504 
L 549.421465 252.586661 
L 550.161688 252.788915 
L 550.90191 252.68443 
L 551.642133 252.737855 
L 552.382355 252.968101 
L 553.122578 253.028328 
L 553.8628 252.897356 
L 554.603023 253.025574 
L 555.343246 254.636917 
L 556.083468 254.378843 
L 558.304136 254.525052 
L 559.044358 254.422925 
L 559.784581 254.526013 
L 560.524803 254.192122 
L 561.265026 254.855038 
L 562.745471 254.802765 
L 563.485693 255.206445 
L 564.225916 254.836976 
L 564.966138 256.145465 
L 565.706361 255.009879 
L 567.927029 255.137112 
L 568.667251 255.173147 
L 569.407474 256.10343 
L 570.887919 256.392763 
L 571.628141 256.44737 
L 572.368364 256.250277 
L 573.848809 256.27503 
L 574.589031 256.133823 
L 576.809699 256.313194 
L 577.549922 257.111636 
L 578.290144 256.945172 
L 579.030367 257.641138 
L 579.770589 257.663628 
L 580.510812 257.154585 
L 581.991257 257.346732 
L 582.731479 257.171786 
L 584.211924 257.259206 
L 584.952147 258.689494 
L 587.172814 258.903864 
L 587.913037 258.428742 
L 588.65326 257.778708 
L 589.393482 259.674608 
L 590.133705 259.153856 
L 591.61415 259.249557 
L 592.354372 259.268673 
L 593.094595 259.68276 
L 593.834817 259.786466 
L 594.57504 260.697229 
L 596.055485 260.878252 
L 596.795707 260.858733 
L 598.276152 259.554343 
L 599.016375 259.7193 
L 599.756598 259.584244 
L 600.49682 259.137061 
L 601.237043 259.199234 
L 601.977265 259.072005 
L 602.717488 258.781392 
L 603.45771 257.243556 
L 604.197933 256.969912 
L 607.158823 257.155014 
L 607.899045 258.904746 
L 608.639268 259.0062 
L 609.379491 256.998433 
L 610.119713 257.023327 
L 610.859936 258.766717 
L 611.600158 258.956256 
L 612.340381 259.3456 
L 613.080603 259.53302 
L 614.561048 259.16372 
L 615.301271 259.2749 
L 616.781716 259.063038 
L 617.521938 260.127587 
L 619.002383 259.65607 
L 621.223051 259.892928 
L 621.963274 259.803396 
L 622.703496 261.472456 
L 626.404609 261.573359 
L 627.144831 261.400862 
L 627.885054 261.672288 
L 628.625276 262.353994 
L 630.105721 262.911769 
L 630.845944 262.779331 
L 631.586167 262.788321 
L 632.326389 263.521163 
L 633.806834 264.048464 
L 636.767724 264.194321 
L 637.507947 263.978648 
L 638.248169 264.361497 
L 638.988392 264.23054 
L 640.468837 264.434307 
L 644.16995 264.416711 
L 644.910172 264.68858 
L 645.650395 264.538221 
L 650.09173 264.806449 
L 651.572175 264.750286 
L 651.572175 264.750286 
" clip-path="url(#p636b10b16c)" style="fill: none; stroke: #2c8a8a; stroke-width: 1.6; stroke-linecap: square"/>
   </g>
   <g id="line2d_34">
    <path d="M 367.881889 264.750286 
L 665.081236 264.750286 
" clip-path="url(#p636b10b16c)" style="fill: none; stroke-dasharray: 2.22,0.96; stroke-dashoffset: 0; stroke: #555555; stroke-opacity: 0.5; stroke-width: 0.6"/>
   </g>
   <g id="patch_5">
    <path d="M 367.881889 285.636617 
L 665.081236 285.636617 
" style="fill: none; stroke: #888888; stroke-width: 0.6; stroke-linejoin: miter; stroke-linecap: square"/>
   </g>
   <g id="text_18">
    <text style="font-size: 11px; font-family: 'Helvetica', 'Arial', 'DejaVu Sans', sans-serif; text-anchor: middle; fill: #2c8a8a" x="516.481563" y="53.712" transform="rotate(-0 516.481563 53.712)">TPRR-S (Standard)</text>
   </g>
  </g>
  <g id="axes_3">
   <g id="patch_6">
    <path d="M 695.77159 285.636617 
L 992.970938 285.636617 
L 992.970938 59.712 
L 695.77159 59.712 
z
" style="fill: #ffffff"/>
   </g>
   <g id="FillBetweenPolyCollection_3">
    <defs>
     <path id="mbcdf7567c7" d="M 709.280651 -281.658743 
L 709.280651 -152.676369 
L 710.020874 -152.85664 
L 710.761096 -150.920163 
L 711.501319 -141.747957 
L 712.241542 -141.862015 
L 712.981764 -142.022143 
L 713.721987 -135.993189 
L 714.462209 -135.568888 
L 715.202432 -135.500996 
L 715.942654 -135.57044 
L 716.682877 -135.818656 
L 717.423099 -135.554175 
L 718.163322 -132.689752 
L 718.903544 -132.972063 
L 719.643767 -133.173343 
L 720.383989 -133.62349 
L 721.124212 -133.494575 
L 721.864434 -132.668241 
L 722.604657 -133.46358 
L 723.34488 -132.583494 
L 724.085102 -133.235753 
L 724.825325 -133.294647 
L 725.565547 -133.334605 
L 726.30577 -134.235724 
L 727.045992 -134.700006 
L 727.786215 -134.839918 
L 728.526437 -134.590944 
L 729.26666 -134.138034 
L 730.006882 -133.495716 
L 730.747105 -133.895536 
L 731.487327 -133.393803 
L 732.22755 -132.582835 
L 732.967772 -132.565737 
L 733.707995 -133.317079 
L 734.448218 -133.120374 
L 735.18844 -132.838522 
L 735.928663 -133.020549 
L 736.668885 -132.089529 
L 737.409108 -132.404484 
L 738.14933 -132.749419 
L 738.889553 -132.643031 
L 739.629775 -135.792989 
L 740.369998 -129.120211 
L 741.11022 -128.608948 
L 741.850443 -128.733136 
L 742.590665 -128.904656 
L 743.330888 -129.394842 
L 744.07111 -129.223739 
L 744.811333 -128.861029 
L 745.551556 -129.003905 
L 746.291778 -128.428599 
L 747.032001 -127.719783 
L 747.772223 -127.408129 
L 748.512446 -125.760873 
L 749.252668 -125.881722 
L 749.992891 -125.64696 
L 750.733113 -125.406587 
L 751.473336 -125.670481 
L 752.213558 -125.437792 
L 752.953781 -124.868668 
L 753.694003 -125.264498 
L 754.434226 -124.662109 
L 755.174448 -124.578781 
L 755.914671 -124.646529 
L 756.654894 -124.40664 
L 757.395116 -124.553324 
L 758.135339 -124.140597 
L 758.875561 -124.200542 
L 759.615784 -124.143145 
L 760.356006 -123.606578 
L 761.096229 -123.723472 
L 761.836451 -122.614479 
L 762.576674 -122.40363 
L 763.316896 -122.901293 
L 764.057119 -123.087121 
L 764.797341 -123.112785 
L 765.537564 -122.31233 
L 766.277786 -122.283664 
L 767.018009 -122.268249 
L 767.758232 -122.395859 
L 768.498454 -121.999377 
L 769.238677 -121.817717 
L 769.978899 -121.86518 
L 770.719122 -121.401432 
L 771.459344 -122.546448 
L 772.199567 -122.487189 
L 772.939789 -122.659861 
L 773.680012 -122.837103 
L 774.420234 -122.084514 
L 775.160457 -122.05239 
L 775.900679 -122.250092 
L 776.640902 -121.203483 
L 777.381124 -120.676941 
L 778.121347 -121.348383 
L 778.86157 -121.128702 
L 779.601792 -120.976358 
L 780.342015 -121.119247 
L 781.082237 -120.695727 
L 781.82246 -121.135021 
L 782.562682 -121.188515 
L 783.302905 -121.231758 
L 784.043127 -120.987219 
L 784.78335 -119.019111 
L 785.523572 -121.078992 
L 786.263795 -120.856966 
L 787.004017 -120.914841 
L 787.74424 -121.098761 
L 788.484463 -120.53912 
L 789.224685 -120.641137 
L 789.964908 -120.761712 
L 790.70513 -120.454192 
L 791.445353 -120.240574 
L 792.185575 -115.358032 
L 792.925798 -115.710556 
L 793.66602 -115.846713 
L 794.406243 -114.63153 
L 795.146465 -114.139484 
L 795.886688 -117.858892 
L 796.62691 -118.895723 
L 797.367133 -119.638053 
L 798.107355 -119.552058 
L 798.847578 -118.946354 
L 799.587801 -118.832647 
L 800.328023 -117.311752 
L 801.068246 -117.228575 
L 801.808468 -117.174912 
L 802.548691 -117.439893 
L 803.288913 -114.958486 
L 804.029136 -114.794501 
L 804.769358 -111.739378 
L 805.509581 -107.572427 
L 806.249803 -107.295159 
L 806.990026 -107.582025 
L 807.730248 -107.347648 
L 808.470471 -107.538158 
L 809.210693 -99.153063 
L 809.950916 -99.508758 
L 810.691139 -99.336431 
L 811.431361 -102.242076 
L 812.171584 -107.869718 
L 812.911806 -108.451056 
L 813.652029 -108.561746 
L 814.392251 -108.567285 
L 815.132474 -104.892588 
L 815.872696 -104.894365 
L 816.612919 -105.068153 
L 817.353141 -105.022715 
L 818.093364 -104.74823 
L 818.833586 -104.91719 
L 819.573809 -104.936611 
L 820.314031 -104.799368 
L 821.054254 -105.311655 
L 821.794477 -105.380913 
L 822.534699 -105.463936 
L 823.274922 -105.510501 
L 824.015144 -106.667135 
L 824.755367 -106.237528 
L 825.495589 -106.806916 
L 826.235812 -106.312408 
L 826.976034 -106.198199 
L 827.716257 -106.145039 
L 828.456479 -105.972564 
L 829.196702 -106.029246 
L 829.936924 -105.473922 
L 830.677147 -106.38554 
L 831.417369 -105.583244 
L 832.157592 -105.379081 
L 832.897815 -105.238892 
L 833.638037 -105.442393 
L 834.37826 -105.433418 
L 835.118482 -104.900636 
L 835.858705 -104.797011 
L 836.598927 -104.647502 
L 837.33915 -103.615379 
L 838.079372 -101.923612 
L 838.819595 -103.394202 
L 839.559817 -102.204422 
L 840.30004 -102.853892 
L 841.040262 -102.625527 
L 841.780485 -102.43492 
L 842.520707 -102.424822 
L 843.26093 -101.995381 
L 844.001153 -102.073631 
L 844.741375 -101.860829 
L 845.481598 -102.942205 
L 846.22182 -101.752676 
L 846.962043 -101.719839 
L 847.702265 -102.117541 
L 848.442488 -102.197844 
L 849.18271 -102.191193 
L 849.922933 -102.380215 
L 850.663155 -102.334821 
L 851.403378 -102.633556 
L 852.1436 -102.307401 
L 852.883823 -101.786922 
L 853.624045 -101.247292 
L 854.364268 -102.182037 
L 855.104491 -100.78727 
L 855.844713 -100.536651 
L 856.584936 -100.611769 
L 857.325158 -100.753978 
L 858.065381 -100.731651 
L 858.805603 -100.452813 
L 859.545826 -100.404994 
L 860.286048 -101.036378 
L 861.026271 -100.267686 
L 861.766493 -100.821467 
L 862.506716 -100.683127 
L 863.246938 -103.375313 
L 863.987161 -103.284825 
L 864.727383 -100.072219 
L 865.467606 -100.241579 
L 866.207829 -99.786657 
L 866.948051 -99.762323 
L 867.688274 -99.966949 
L 868.428496 -99.592717 
L 869.168719 -99.60988 
L 869.908941 -100.106089 
L 870.649164 -98.633235 
L 871.389386 -99.136103 
L 872.129609 -98.682539 
L 872.869831 -98.607669 
L 873.610054 -98.608012 
L 874.350276 -97.641526 
L 875.090499 -94.965564 
L 875.830722 -95.00121 
L 876.570944 -95.15406 
L 877.311167 -94.078071 
L 878.051389 -94.907297 
L 878.791612 -94.617316 
L 879.531834 -94.460437 
L 880.272057 -95.124689 
L 881.012279 -94.688238 
L 881.752502 -94.373875 
L 882.492724 -94.494828 
L 883.232947 -95.015355 
L 883.973169 -95.452949 
L 884.713392 -96.137357 
L 885.453614 -96.138887 
L 886.193837 -95.741276 
L 886.93406 -95.841223 
L 887.674282 -96.250237 
L 888.414505 -96.435398 
L 889.154727 -96.150288 
L 889.89495 -96.498232 
L 890.635172 -96.148225 
L 891.375395 -96.156465 
L 892.115617 -96.551811 
L 892.85584 -96.419974 
L 893.596062 -96.402056 
L 894.336285 -96.262164 
L 895.076507 -96.079803 
L 895.81673 -96.186111 
L 896.556952 -96.444569 
L 897.297175 -95.2585 
L 898.037398 -95.199313 
L 898.77762 -95.271858 
L 899.517843 -95.118932 
L 900.258065 -95.163629 
L 900.998288 -95.146741 
L 901.73851 -95.208041 
L 902.478733 -95.385503 
L 903.218955 -95.488325 
L 903.959178 -95.422149 
L 904.6994 -94.886281 
L 905.439623 -95.830443 
L 906.179845 -95.442884 
L 906.920068 -95.2265 
L 907.66029 -95.239621 
L 908.400513 -94.578999 
L 909.140736 -94.435669 
L 909.880958 -93.932621 
L 910.621181 -93.932918 
L 911.361403 -93.177616 
L 912.101626 -93.213431 
L 912.841848 -92.757002 
L 913.582071 -93.018729 
L 914.322293 -92.850967 
L 915.062516 -92.767026 
L 915.802738 -92.575508 
L 916.542961 -92.209924 
L 917.283183 -92.458947 
L 918.023406 -92.329291 
L 918.763628 -90.987182 
L 919.503851 -91.30979 
L 920.244074 -91.641044 
L 920.984296 -91.565527 
L 921.724519 -91.583869 
L 922.464741 -91.125153 
L 923.204964 -85.813047 
L 923.945186 -85.555251 
L 924.685409 -85.006301 
L 925.425631 -84.872158 
L 926.165854 -85.152969 
L 926.906076 -85.187329 
L 927.646299 -85.073504 
L 928.386521 -85.444918 
L 929.126744 -85.066798 
L 929.866966 -85.30734 
L 930.607189 -84.930539 
L 931.347412 -84.887463 
L 932.087634 -86.121777 
L 932.827857 -85.793878 
L 933.568079 -85.714582 
L 934.308302 -85.74522 
L 935.048524 -85.838677 
L 935.788747 -85.968862 
L 936.528969 -86.04965 
L 937.269192 -85.937658 
L 938.009414 -85.854311 
L 938.749637 -86.062014 
L 939.489859 -86.358738 
L 940.230082 -86.367235 
L 940.970304 -86.229586 
L 941.710527 -85.899003 
L 942.45075 -85.733321 
L 943.190972 -86.659288 
L 943.931195 -83.336376 
L 944.671417 -83.29036 
L 945.41164 -83.072851 
L 946.151862 -83.155517 
L 946.892085 -83.304629 
L 947.632307 -83.405854 
L 948.37253 -83.282019 
L 949.112752 -83.210839 
L 949.852975 -83.236336 
L 950.593197 -83.61445 
L 951.33342 -85.868092 
L 952.073643 -86.327775 
L 952.813865 -86.351498 
L 953.554088 -85.996353 
L 954.29431 -85.832218 
L 955.034533 -79.05718 
L 955.774755 -79.160745 
L 956.514978 -79.382256 
L 957.2552 -79.506013 
L 957.995423 -78.506058 
L 958.735645 -78.279111 
L 959.475868 -77.720684 
L 960.21609 -85.992187 
L 960.956313 -84.792103 
L 961.696535 -85.027975 
L 962.436758 -84.815009 
L 963.176981 -84.869115 
L 963.917203 -84.890573 
L 964.657426 -85.123485 
L 965.397648 -85.336689 
L 966.137871 -85.247058 
L 966.878093 -87.280401 
L 967.618316 -87.403011 
L 968.358538 -86.849559 
L 969.098761 -86.794957 
L 969.838983 -86.816526 
L 970.579206 -86.72431 
L 971.319428 -86.803472 
L 972.059651 -87.24301 
L 972.799873 -87.348128 
L 973.540096 -87.331043 
L 974.280319 -86.709636 
L 975.020541 -86.559323 
L 975.760764 -86.86647 
L 976.500986 -87.389055 
L 977.241209 -87.060723 
L 977.981431 -87.642942 
L 978.721654 -87.868719 
L 979.461876 -88.337714 
L 979.461876 -88.337714 
L 979.461876 -88.337714 
L 978.721654 -89.178069 
L 977.981431 -89.296201 
L 977.241209 -94.96509 
L 976.500986 -94.46108 
L 975.760764 -97.257514 
L 975.020541 -97.354257 
L 974.280319 -97.293275 
L 973.540096 -104.614094 
L 972.799873 -104.344128 
L 972.059651 -104.610987 
L 971.319428 -103.967729 
L 970.579206 -104.413192 
L 969.838983 -103.988754 
L 969.098761 -104.8749 
L 968.358538 -106.885793 
L 967.618316 -110.968488 
L 966.878093 -110.972394 
L 966.137871 -115.084566 
L 965.397648 -115.004506 
L 964.657426 -110.438266 
L 963.917203 -110.824359 
L 963.176981 -111.024335 
L 962.436758 -108.655739 
L 961.696535 -108.667472 
L 960.956313 -109.070306 
L 960.21609 -110.969885 
L 959.475868 -110.313157 
L 958.735645 -108.535418 
L 957.995423 -108.595639 
L 957.2552 -108.689432 
L 956.514978 -108.521394 
L 955.774755 -108.590541 
L 955.034533 -108.485706 
L 954.29431 -112.533544 
L 953.554088 -115.617135 
L 952.813865 -115.685806 
L 952.073643 -115.576032 
L 951.33342 -114.66712 
L 950.593197 -114.639718 
L 949.852975 -114.770953 
L 949.112752 -115.46074 
L 948.37253 -115.540188 
L 947.632307 -115.838095 
L 946.892085 -115.491219 
L 946.151862 -115.202219 
L 945.41164 -115.90833 
L 944.671417 -112.735375 
L 943.931195 -112.614167 
L 943.190972 -121.107279 
L 942.45075 -121.898071 
L 941.710527 -121.492653 
L 940.970304 -120.488187 
L 940.230082 -120.383958 
L 939.489859 -120.426037 
L 938.749637 -119.694022 
L 938.009414 -120.026499 
L 937.269192 -120.186936 
L 936.528969 -120.213188 
L 935.788747 -120.478602 
L 935.048524 -120.132328 
L 934.308302 -110.424695 
L 933.568079 -111.006642 
L 932.827857 -110.186888 
L 932.087634 -110.017566 
L 931.347412 -109.774293 
L 930.607189 -110.086565 
L 929.866966 -109.892134 
L 929.126744 -120.642297 
L 928.386521 -120.779761 
L 927.646299 -120.216161 
L 926.906076 -120.488342 
L 926.165854 -121.566883 
L 925.425631 -122.179778 
L 924.685409 -122.288 
L 923.945186 -121.853155 
L 923.204964 -123.390923 
L 922.464741 -123.348909 
L 921.724519 -123.495673 
L 920.984296 -124.391046 
L 920.244074 -123.298353 
L 919.503851 -131.551385 
L 918.763628 -132.67757 
L 918.023406 -132.545913 
L 917.283183 -132.615209 
L 916.542961 -130.778815 
L 915.802738 -130.970612 
L 915.062516 -130.805456 
L 914.322293 -129.466732 
L 913.582071 -129.475901 
L 912.841848 -129.387224 
L 912.101626 -129.529123 
L 911.361403 -129.662706 
L 910.621181 -129.950787 
L 909.880958 -131.040795 
L 909.140736 -131.834212 
L 908.400513 -131.567904 
L 907.66029 -139.476217 
L 906.920068 -140.243844 
L 906.179845 -140.586323 
L 905.439623 -140.359089 
L 904.6994 -139.264223 
L 903.959178 -139.516638 
L 903.218955 -138.673327 
L 902.478733 -138.038816 
L 901.73851 -137.935266 
L 900.998288 -139.186743 
L 900.258065 -138.085244 
L 899.517843 -136.12167 
L 898.77762 -135.927679 
L 898.037398 -136.137413 
L 897.297175 -135.825119 
L 896.556952 -136.392024 
L 895.81673 -136.90332 
L 895.076507 -138.696388 
L 894.336285 -138.522775 
L 893.596062 -141.043527 
L 892.85584 -140.687854 
L 892.115617 -140.78588 
L 891.375395 -141.046347 
L 890.635172 -141.882813 
L 889.89495 -140.921889 
L 889.154727 -145.280943 
L 888.414505 -143.590893 
L 887.674282 -142.664653 
L 886.93406 -143.562899 
L 886.193837 -147.73629 
L 885.453614 -148.205801 
L 884.713392 -148.752509 
L 883.973169 -148.598234 
L 883.232947 -148.715783 
L 882.492724 -149.05053 
L 881.752502 -149.356501 
L 881.012279 -146.08811 
L 880.272057 -145.542313 
L 879.531834 -146.713624 
L 878.791612 -145.712103 
L 878.051389 -145.392304 
L 877.311167 -139.517453 
L 876.570944 -139.521267 
L 875.830722 -139.371006 
L 875.090499 -139.285727 
L 874.350276 -138.79061 
L 873.610054 -141.10124 
L 872.869831 -142.045068 
L 872.129609 -142.2756 
L 871.389386 -141.653541 
L 870.649164 -142.637589 
L 869.908941 -143.614792 
L 869.168719 -141.945474 
L 868.428496 -142.191336 
L 867.688274 -142.053794 
L 866.948051 -148.104993 
L 866.207829 -148.856537 
L 865.467606 -147.746048 
L 864.727383 -161.426003 
L 863.987161 -163.727545 
L 863.246938 -162.767025 
L 862.506716 -163.414541 
L 861.766493 -163.473046 
L 861.026271 -162.491708 
L 860.286048 -163.278925 
L 859.545826 -162.396456 
L 858.805603 -161.62857 
L 858.065381 -163.046627 
L 857.325158 -162.411251 
L 856.584936 -162.644168 
L 855.844713 -162.871323 
L 855.104491 -163.681819 
L 854.364268 -163.742724 
L 853.624045 -162.657499 
L 852.883823 -163.946821 
L 852.1436 -163.661515 
L 851.403378 -163.776469 
L 850.663155 -164.951258 
L 849.922933 -166.683524 
L 849.18271 -167.055674 
L 848.442488 -167.334151 
L 847.702265 -165.536099 
L 846.962043 -164.956188 
L 846.22182 -165.558614 
L 845.481598 -166.648533 
L 844.741375 -165.912541 
L 844.001153 -166.633137 
L 843.26093 -167.365707 
L 842.520707 -167.19012 
L 841.780485 -168.148696 
L 841.040262 -160.181647 
L 840.30004 -160.223646 
L 839.559817 -160.6978 
L 838.819595 -167.166414 
L 838.079372 -166.898995 
L 837.33915 -166.844157 
L 836.598927 -166.940072 
L 835.858705 -167.600439 
L 835.118482 -168.095783 
L 834.37826 -168.519156 
L 833.638037 -168.745126 
L 832.897815 -167.581907 
L 832.157592 -168.277854 
L 831.417369 -168.889022 
L 830.677147 -167.443606 
L 829.936924 -166.874395 
L 829.196702 -168.354564 
L 828.456479 -168.945178 
L 827.716257 -168.32503 
L 826.976034 -169.147062 
L 826.235812 -175.134974 
L 825.495589 -170.020178 
L 824.755367 -169.611681 
L 824.015144 -169.522499 
L 823.274922 -170.797793 
L 822.534699 -171.014726 
L 821.794477 -177.529755 
L 821.054254 -178.30573 
L 820.314031 -180.935303 
L 819.573809 -182.436101 
L 818.833586 -182.006233 
L 818.093364 -183.303532 
L 817.353141 -182.178252 
L 816.612919 -198.840619 
L 815.872696 -200.962958 
L 815.132474 -201.076948 
L 814.392251 -192.420359 
L 813.652029 -194.240531 
L 812.911806 -193.810039 
L 812.171584 -194.223819 
L 811.431361 -200.417747 
L 810.691139 -200.999441 
L 809.950916 -199.685581 
L 809.210693 -199.285124 
L 808.470471 -199.544511 
L 807.730248 -217.821758 
L 806.990026 -218.686002 
L 806.249803 -218.46368 
L 805.509581 -218.582472 
L 804.769358 -218.018333 
L 804.029136 -218.190094 
L 803.288913 -218.961651 
L 802.548691 -219.653237 
L 801.808468 -219.001695 
L 801.068246 -219.243918 
L 800.328023 -219.35237 
L 799.587801 -219.041019 
L 798.847578 -220.009416 
L 798.107355 -219.739264 
L 797.367133 -219.647835 
L 796.62691 -220.282948 
L 795.886688 -220.305178 
L 795.146465 -221.603641 
L 794.406243 -221.279737 
L 793.66602 -220.883549 
L 792.925798 -220.964087 
L 792.185575 -220.180146 
L 791.445353 -219.11841 
L 790.70513 -218.62319 
L 789.964908 -219.674528 
L 789.224685 -219.818591 
L 788.484463 -220.893589 
L 787.74424 -221.409196 
L 787.004017 -221.20071 
L 786.263795 -225.254265 
L 785.523572 -224.976745 
L 784.78335 -224.289008 
L 784.043127 -224.238194 
L 783.302905 -226.969282 
L 782.562682 -227.719151 
L 781.82246 -227.154234 
L 781.082237 -228.123038 
L 780.342015 -228.156535 
L 779.601792 -226.828422 
L 778.86157 -228.292602 
L 778.121347 -227.054141 
L 777.381124 -228.79647 
L 776.640902 -237.231834 
L 775.900679 -237.621406 
L 775.160457 -238.435917 
L 774.420234 -238.306699 
L 773.680012 -238.614186 
L 772.939789 -238.219265 
L 772.199567 -239.1136 
L 771.459344 -239.603632 
L 770.719122 -240.371955 
L 769.978899 -239.933013 
L 769.238677 -239.522122 
L 768.498454 -239.065429 
L 767.758232 -239.371369 
L 767.018009 -232.744535 
L 766.277786 -240.300001 
L 765.537564 -240.926671 
L 764.797341 -241.134423 
L 764.057119 -240.491961 
L 763.316896 -241.070587 
L 762.576674 -240.770175 
L 761.836451 -240.716679 
L 761.096229 -240.994348 
L 760.356006 -240.950833 
L 759.615784 -241.035405 
L 758.875561 -241.019013 
L 758.135339 -241.762352 
L 757.395116 -241.307166 
L 756.654894 -241.180647 
L 755.914671 -240.413077 
L 755.174448 -235.957186 
L 754.434226 -235.135254 
L 753.694003 -236.382037 
L 752.953781 -236.351066 
L 752.213558 -236.017935 
L 751.473336 -239.870232 
L 750.733113 -238.217085 
L 749.992891 -237.369177 
L 749.252668 -237.694752 
L 748.512446 -238.040416 
L 747.772223 -237.075295 
L 747.032001 -238.107077 
L 746.291778 -248.533943 
L 745.551556 -249.450078 
L 744.811333 -249.684344 
L 744.07111 -249.621198 
L 743.330888 -246.326338 
L 742.590665 -246.020443 
L 741.850443 -246.880547 
L 741.11022 -246.736501 
L 740.369998 -246.908526 
L 739.629775 -246.434897 
L 738.889553 -247.172904 
L 738.14933 -247.096709 
L 737.409108 -246.455179 
L 736.668885 -273.406559 
L 735.928663 -273.222635 
L 735.18844 -272.52678 
L 734.448218 -272.751251 
L 733.707995 -273.678783 
L 732.967772 -273.660536 
L 732.22755 -274.514658 
L 731.487327 -273.211544 
L 730.747105 -272.86391 
L 730.006882 -274.532161 
L 729.26666 -273.998393 
L 728.526437 -269.64088 
L 727.786215 -265.704595 
L 727.045992 -262.364464 
L 726.30577 -261.517159 
L 725.565547 -265.431411 
L 724.825325 -262.494876 
L 724.085102 -263.352209 
L 723.34488 -263.541101 
L 722.604657 -264.847354 
L 721.864434 -263.915399 
L 721.124212 -264.979195 
L 720.383989 -265.521176 
L 719.643767 -283.106699 
L 718.903544 -281.113205 
L 718.163322 -279.607445 
L 717.423099 -279.829926 
L 716.682877 -277.917075 
L 715.942654 -279.992549 
L 715.202432 -279.00785 
L 714.462209 -277.986957 
L 713.721987 -277.193494 
L 712.981764 -279.724086 
L 712.241542 -280.004546 
L 711.501319 -280.334493 
L 710.761096 -280.258296 
L 710.020874 -280.965274 
L 709.280651 -281.658743 
z
"/>
    </defs>
    <g clip-path="url(#p3210940139)">
     <use xlink:href="#mbcdf7567c7" x="0" y="353.088" style="fill: #5fa869; fill-opacity: 0.15"/>
    </g>
   </g>
   <g id="matplotlib.axis_5">
    <g id="xtick_11">
     <g id="line2d_35">
      <g>
       <use xlink:href="#m9f61ef4e60" x="709.280651" y="285.636617" style="stroke: #000000; stroke-width: 0.8"/>
      </g>
     </g>
     <g id="text_19">
      <text style="font-size: 8px; font-family: 'Helvetica', 'Arial', 'DejaVu Sans', sans-serif" transform="translate(681.908414 312.94007) rotate(-30)">2025 Q1</text>
     </g>
    </g>
    <g id="xtick_12">
     <g id="line2d_36">
      <g>
       <use xlink:href="#m9f61ef4e60" x="775.900679" y="285.636617" style="stroke: #000000; stroke-width: 0.8"/>
      </g>
     </g>
     <g id="text_20">
      <text style="font-size: 8px; font-family: 'Helvetica', 'Arial', 'DejaVu Sans', sans-serif" transform="translate(748.528442 312.94007) rotate(-30)">2025 Q2</text>
     </g>
    </g>
    <g id="xtick_13">
     <g id="line2d_37">
      <g>
       <use xlink:href="#m9f61ef4e60" x="843.26093" y="285.636617" style="stroke: #000000; stroke-width: 0.8"/>
      </g>
     </g>
     <g id="text_21">
      <text style="font-size: 8px; font-family: 'Helvetica', 'Arial', 'DejaVu Sans', sans-serif" transform="translate(815.888693 312.94007) rotate(-30)">2025 Q3</text>
     </g>
    </g>
    <g id="xtick_14">
     <g id="line2d_38">
      <g>
       <use xlink:href="#m9f61ef4e60" x="911.361403" y="285.636617" style="stroke: #000000; stroke-width: 0.8"/>
      </g>
     </g>
     <g id="text_22">
      <text style="font-size: 8px; font-family: 'Helvetica', 'Arial', 'DejaVu Sans', sans-serif" transform="translate(883.989166 312.94007) rotate(-30)">2025 Q4</text>
     </g>
    </g>
    <g id="xtick_15">
     <g id="line2d_39">
      <g>
       <use xlink:href="#m9f61ef4e60" x="979.461876" y="285.636617" style="stroke: #000000; stroke-width: 0.8"/>
      </g>
     </g>
     <g id="text_23">
      <text style="font-size: 8px; font-family: 'Helvetica', 'Arial', 'DejaVu Sans', sans-serif" transform="translate(952.089639 312.94007) rotate(-30)">2026 Q1</text>
     </g>
    </g>
   </g>
   <g id="matplotlib.axis_6">
    <g id="ytick_11">
     <g id="line2d_40">
      <path d="M 695.77159 264.750286 
L 992.970938 264.750286 
" clip-path="url(#p3210940139)" style="fill: none; stroke: #e0e0e0; stroke-width: 0.6; stroke-linecap: square"/>
     </g>
     <g id="line2d_41">
      <g>
       <use xlink:href="#me89d0b6c21" x="695.77159" y="264.750286" style="stroke: #000000; stroke-width: 0.8"/>
      </g>
     </g>
    </g>
    <g id="ytick_12">
     <g id="line2d_42">
      <path d="M 695.77159 218.351121 
L 992.970938 218.351121 
" clip-path="url(#p3210940139)" style="fill: none; stroke: #e0e0e0; stroke-width: 0.6; stroke-linecap: square"/>
     </g>
     <g id="line2d_43">
      <g>
       <use xlink:href="#me89d0b6c21" x="695.77159" y="218.351121" style="stroke: #000000; stroke-width: 0.8"/>
      </g>
     </g>
    </g>
    <g id="ytick_13">
     <g id="line2d_44">
      <path d="M 695.77159 171.951955 
L 992.970938 171.951955 
" clip-path="url(#p3210940139)" style="fill: none; stroke: #e0e0e0; stroke-width: 0.6; stroke-linecap: square"/>
     </g>
     <g id="line2d_45">
      <g>
       <use xlink:href="#me89d0b6c21" x="695.77159" y="171.951955" style="stroke: #000000; stroke-width: 0.8"/>
      </g>
     </g>
    </g>
    <g id="ytick_14">
     <g id="line2d_46">
      <path d="M 695.77159 125.55279 
L 992.970938 125.55279 
" clip-path="url(#p3210940139)" style="fill: none; stroke: #e0e0e0; stroke-width: 0.6; stroke-linecap: square"/>
     </g>
     <g id="line2d_47">
      <g>
       <use xlink:href="#me89d0b6c21" x="695.77159" y="125.55279" style="stroke: #000000; stroke-width: 0.8"/>
      </g>
     </g>
    </g>
    <g id="ytick_15">
     <g id="line2d_48">
      <path d="M 695.77159 79.153624 
L 992.970938 79.153624 
" clip-path="url(#p3210940139)" style="fill: none; stroke: #e0e0e0; stroke-width: 0.6; stroke-linecap: square"/>
     </g>
     <g id="line2d_49">
      <g>
       <use xlink:href="#me89d0b6c21" x="695.77159" y="79.153624" style="stroke: #000000; stroke-width: 0.8"/>
      </g>
     </g>
    </g>
   </g>
   <g id="line2d_50">
    <path d="M 709.280651 142.023705 
L 710.020874 142.24076 
L 710.761096 141.343824 
L 711.501319 141.293036 
L 712.241542 141.64704 
L 712.981764 140.891917 
L 713.721987 141.641469 
L 714.462209 141.694064 
L 715.202432 141.311121 
L 715.942654 141.097388 
L 716.682877 141.609608 
L 717.423099 151.547135 
L 718.163322 152.142268 
L 718.903544 151.900312 
L 719.643767 152.130268 
L 720.383989 152.569754 
L 721.124212 152.509833 
L 721.864434 153.605024 
L 722.604657 152.254701 
L 723.34488 151.489401 
L 724.085102 151.833577 
L 725.565547 158.187795 
L 726.30577 158.316712 
L 727.045992 158.119442 
L 727.786215 157.805482 
L 728.526437 157.678844 
L 729.26666 165.67544 
L 730.747105 165.099971 
L 731.487327 163.74817 
L 732.22755 163.341746 
L 732.967772 163.56598 
L 733.707995 163.497788 
L 734.448218 164.357049 
L 735.18844 164.358675 
L 735.928663 165.565391 
L 736.668885 165.452739 
L 737.409108 162.796107 
L 738.14933 162.183443 
L 738.889553 162.548943 
L 739.629775 166.024603 
L 740.369998 166.158014 
L 741.11022 165.797188 
L 741.850443 165.78066 
L 742.590665 163.617187 
L 743.330888 163.125102 
L 744.811333 162.874987 
L 745.551556 162.599071 
L 746.291778 166.568063 
L 747.032001 166.544734 
L 747.772223 167.170936 
L 748.512446 168.727238 
L 749.252668 177.742085 
L 749.992891 177.524637 
L 750.733113 177.655141 
L 751.473336 183.959806 
L 752.213558 183.111179 
L 752.953781 183.282163 
L 753.694003 183.280149 
L 754.434226 183.433981 
L 755.174448 188.691146 
L 755.914671 187.768745 
L 756.654894 188.273455 
L 757.395116 189.600771 
L 758.135339 189.086752 
L 758.875561 188.852126 
L 759.615784 188.052944 
L 760.356006 188.648723 
L 761.096229 190.604526 
L 761.836451 197.688866 
L 762.576674 196.828026 
L 763.316896 197.17074 
L 764.057119 196.842733 
L 764.797341 196.770959 
L 765.537564 196.139112 
L 766.277786 196.081803 
L 767.018009 195.306456 
L 767.758232 195.10004 
L 768.498454 195.196307 
L 769.238677 194.610329 
L 769.978899 194.807298 
L 770.719122 195.273211 
L 771.459344 195.057631 
L 772.199567 194.650187 
L 772.939789 194.488904 
L 773.680012 195.329379 
L 775.160457 194.830328 
L 775.900679 200.425419 
L 776.640902 200.466099 
L 777.381124 200.184635 
L 778.121347 200.951553 
L 778.86157 200.447432 
L 779.601792 200.367032 
L 780.342015 201.138 
L 781.082237 200.913504 
L 781.82246 199.137514 
L 782.562682 198.04851 
L 783.302905 202.653654 
L 784.043127 203.010558 
L 784.78335 202.615888 
L 785.523572 202.433437 
L 787.004017 201.315835 
L 787.74424 201.49364 
L 788.484463 202.25466 
L 789.224685 202.697057 
L 789.964908 207.367419 
L 791.445353 207.780355 
L 792.185575 206.87812 
L 792.925798 206.913383 
L 793.66602 206.732189 
L 794.406243 206.789399 
L 795.146465 207.120532 
L 795.886688 208.176726 
L 796.62691 207.114203 
L 797.367133 206.847337 
L 798.107355 207.069046 
L 798.847578 205.627591 
L 800.328023 206.20544 
L 801.068246 203.853327 
L 801.808468 203.870945 
L 802.548691 204.017022 
L 803.288913 215.846512 
L 804.029136 215.90504 
L 805.509581 215.076427 
L 806.990026 215.240953 
L 807.730248 215.234294 
L 808.470471 217.462943 
L 809.210693 220.664486 
L 810.691139 220.475678 
L 811.431361 220.605099 
L 812.171584 219.504868 
L 812.911806 219.262103 
L 813.652029 219.175486 
L 814.392251 218.753419 
L 815.132474 220.52683 
L 815.872696 220.350898 
L 816.612919 220.644427 
L 817.353141 220.654166 
L 818.093364 220.433815 
L 818.833586 220.668046 
L 819.573809 220.469433 
L 820.314031 226.70675 
L 822.534699 226.381564 
L 823.274922 225.586564 
L 824.015144 228.332185 
L 824.755367 228.188862 
L 825.495589 227.7425 
L 826.235812 228.281793 
L 826.976034 227.772252 
L 827.716257 226.786489 
L 828.456479 227.110929 
L 829.196702 228.08088 
L 829.936924 230.981106 
L 830.677147 230.179481 
L 831.417369 230.013779 
L 832.157592 233.56266 
L 833.638037 233.643271 
L 834.37826 234.118608 
L 835.118482 232.91518 
L 835.858705 233.109311 
L 836.598927 233.733421 
L 837.33915 234.04744 
L 838.079372 233.698009 
L 838.819595 233.479596 
L 839.559817 235.298376 
L 840.30004 234.776661 
L 841.040262 235.226945 
L 841.780485 233.160454 
L 842.520707 233.039642 
L 844.001153 233.45748 
L 844.741375 233.155846 
L 846.22182 233.375155 
L 849.18271 232.962284 
L 849.922933 233.79348 
L 850.663155 233.427983 
L 851.403378 233.54862 
L 852.1436 232.995227 
L 852.883823 233.750947 
L 853.624045 233.048097 
L 854.364268 232.921647 
L 855.104491 234.330958 
L 855.844713 235.031536 
L 856.584936 235.132032 
L 857.325158 234.939154 
L 858.065381 235.305938 
L 858.805603 238.234908 
L 859.545826 238.505469 
L 860.286048 237.65097 
L 861.026271 240.134346 
L 861.766493 241.182661 
L 862.506716 240.680481 
L 863.246938 240.816668 
L 863.987161 240.764238 
L 864.727383 239.887475 
L 865.467606 239.255997 
L 866.207829 239.809469 
L 866.948051 240.220347 
L 867.688274 239.279334 
L 868.428496 239.585991 
L 869.908941 239.704792 
L 870.649164 239.725282 
L 871.389386 239.317522 
L 872.129609 239.436677 
L 872.869831 238.928117 
L 873.610054 240.869546 
L 874.350276 241.266357 
L 875.830722 240.652767 
L 876.570944 240.625125 
L 877.311167 240.353116 
L 878.051389 240.216839 
L 878.791612 240.321136 
L 879.531834 241.112742 
L 880.272057 241.181754 
L 881.012279 239.07027 
L 881.752502 238.923585 
L 882.492724 237.316702 
L 883.232947 237.527303 
L 883.973169 237.486326 
L 884.713392 237.244784 
L 885.453614 237.769792 
L 886.193837 237.317408 
L 886.93406 238.124399 
L 887.674282 239.136258 
L 888.414505 239.384087 
L 889.154727 239.138541 
L 889.89495 240.402359 
L 890.635172 240.545203 
L 891.375395 241.6457 
L 892.115617 242.485902 
L 892.85584 240.674131 
L 893.596062 242.204439 
L 894.336285 242.139164 
L 895.076507 242.384815 
L 895.81673 242.464912 
L 896.556952 243.742053 
L 897.297175 244.255773 
L 898.037398 245.714442 
L 899.517843 246.030747 
L 900.258065 245.580347 
L 900.998288 246.553422 
L 901.73851 246.457825 
L 902.478733 246.587602 
L 903.218955 246.961649 
L 903.959178 247.575169 
L 904.6994 247.327091 
L 905.439623 247.50611 
L 906.179845 248.08351 
L 906.920068 248.103646 
L 907.66029 248.490439 
L 908.400513 250.354067 
L 909.880958 250.238815 
L 910.621181 250.570615 
L 911.361403 249.095326 
L 912.101626 249.358727 
L 912.841848 248.977335 
L 913.582071 249.035114 
L 914.322293 249.803243 
L 915.062516 249.243708 
L 915.802738 251.919243 
L 916.542961 253.103266 
L 917.283183 253.173702 
L 918.023406 252.769334 
L 918.763628 254.147803 
L 920.244074 253.959989 
L 922.464741 254.323458 
L 923.204964 254.602223 
L 923.945186 253.628285 
L 924.685409 253.763568 
L 926.165854 253.578153 
L 926.906076 253.842757 
L 927.646299 253.652476 
L 929.126744 253.856061 
L 929.866966 253.906293 
L 930.607189 254.350395 
L 931.347412 255.396412 
L 932.087634 255.047754 
L 932.827857 255.507257 
L 933.568079 255.196055 
L 934.308302 253.702474 
L 935.048524 253.694412 
L 935.788747 253.502848 
L 936.528969 253.644968 
L 937.269192 254.208658 
L 938.009414 253.805255 
L 939.489859 253.890519 
L 940.230082 252.986064 
L 940.970304 254.148445 
L 941.710527 254.249365 
L 942.45075 255.464396 
L 943.190972 255.164559 
L 943.931195 258.268594 
L 945.41164 258.363868 
L 946.151862 258.201763 
L 946.892085 258.259692 
L 948.37253 257.984656 
L 949.112752 258.061884 
L 949.852975 256.680042 
L 950.593197 256.302391 
L 951.33342 256.142121 
L 952.073643 256.369693 
L 952.813865 256.18635 
L 953.554088 256.41651 
L 954.29431 256.497448 
L 955.034533 257.439672 
L 955.774755 257.483113 
L 956.514978 257.799955 
L 957.2552 261.959935 
L 957.995423 263.840031 
L 958.735645 264.066834 
L 959.475868 262.797986 
L 960.21609 261.11655 
L 960.956313 261.204232 
L 961.696535 261.50109 
L 962.436758 261.626436 
L 963.176981 262.557281 
L 964.657426 261.871406 
L 966.137871 264.275129 
L 966.878093 263.448015 
L 967.618316 263.420693 
L 968.358538 264.073363 
L 969.098761 263.691622 
L 970.579206 264.258661 
L 972.799873 264.390828 
L 974.280319 264.547306 
L 975.760764 264.653715 
L 977.981431 264.846218 
L 978.721654 264.696414 
L 979.461876 264.750286 
L 979.461876 264.750286 
" clip-path="url(#p3210940139)" style="fill: none; stroke: #5fa869; stroke-width: 1.6; stroke-linecap: square"/>
   </g>
   <g id="line2d_51">
    <path d="M 695.77159 264.750286 
L 992.970938 264.750286 
" clip-path="url(#p3210940139)" style="fill: none; stroke-dasharray: 2.22,0.96; stroke-dashoffset: 0; stroke: #555555; stroke-opacity: 0.5; stroke-width: 0.6"/>
   </g>
   <g id="patch_7">
    <path d="M 695.77159 285.636617 
L 992.970938 285.636617 
" style="fill: none; stroke: #888888; stroke-width: 0.6; stroke-linejoin: miter; stroke-linecap: square"/>
   </g>
   <g id="text_24">
    <text style="font-size: 11px; font-family: 'Helvetica', 'Arial', 'DejaVu Sans', sans-serif; text-anchor: middle; fill: #5fa869" x="844.371264" y="53.712" transform="rotate(-0 844.371264 53.712)">TPRR-E (Efficiency)</text>
   </g>
  </g>
  <g id="text_25">
   <text style="font-size: 11px; font-family: 'Helvetica', 'Arial', 'DejaVu Sans', sans-serif; text-anchor: middle" x="499.770938" y="15.207656" transform="rotate(-0 499.770938 15.207656)">TPRR-F / -S / -E daily index level over the 366-day backtest (canonical config)</text>
  </g>
  <g id="text_26">
   <text style="font-style: italic; font-size: 8px; font-family: 'Helvetica', 'Arial', 'DejaVu Sans', sans-serif; text-anchor: start; fill: #555555" x="39.992188" y="344.20425" transform="rotate(-0 39.992188 344.20425)">Centerline = per-day median across 20 seeds (42-61); shaded band = 5th-95th percentile across seeds</text>
  </g>
 </g>
 <defs>
  <clipPath id="p39749e9afd">
   <rect x="39.992188" y="59.712" width="297.199347" height="225.924617"/>
  </clipPath>
  <clipPath id="p636b10b16c">
   <rect x="367.881889" y="59.712" width="297.199347" height="225.924617"/>
  </clipPath>
  <clipPath id="p3210940139">
   <rect x="695.77159" y="59.712" width="297.199347" height="225.924617"/>
  </clipPath>
 </defs>
</svg>
